<?xml version="1.0" encoding="UTF-8"?>
<svg id="Layer_1" data-name="Layer 1" xmlns="http://www.w3.org/2000/svg" viewBox="0 0 424.47 111.38">
  <defs>
    <style>
      .cls-1 {
        fill: #fff;
        stroke: #1d3051;
        stroke-miterlimit: 10;
      }
    </style>
  </defs>
  <path class="cls-1" d="m155.02,36.76c.34-1.16-.14-2.36.14-4.07.63,1.82.17,3.35,1.05,4.56.55.75.12,2.18,1.67,2.28.33.02.32.68.37,1.07.09.79.19,1.59.23,2.39.04.87.42,1.34,1.33,1.31.4-.01.81.05,1.2,0,6-.74,11.55,4.61,12.87,8.91.47,1.54,1.27,2.27,2.81,2.76,4.69,1.49,7.32,5.35,7.35,10.32.01,2.09.06,4.18-1.17,6.02-.39.59-.3.98.27,1.4,2.91,2.1,5.12,4.8,6.67,8.04.3.63.7.97,1.44,1.07,5.39.69,9.08,3.72,11.32,8.55,1.52,3.27,1.46,6.72.21,10.02-1.72,4.55-5.38,7.23-9.66,9.12-1.26.55-2.68.37-4.04.37-16.72,0-33.44,0-50.16,0-41.36,0-82.71-.01-124.07.02-4.99,0-8.8-2.3-11.58-6.1-6.13-8.38-1.59-19.81,8.58-21.82,1.42-.28,2.34-.76,2.83-2.08.03-.07.07-.14.11-.21.74-1.14,1.81-2.2,2.12-3.44.33-1.35-1.34-2.18-1.77-3.45-2.11-6.34-.4-12.89,6.75-15.42,1.44-.51,2.17-1.16,2.67-2.6,1.35-3.9,4.12-6.58,7.85-8.31,1.18-.55,2.43-.77,3.73-.75,1.76.03,3.52.02,5.28,0,1.65-.02,1.73-.05,1.69-1.77-.08-3.61.32-7.18.63-10.77.24-2.73,1.22-5.29,1.89-7.91.46-1.77,1.9-2.39,3.79-2.57,2.12-.21,4.31-.16,6.31-1.18.91-.46,1.94-.81,2.94-.92,1.31-.14,2.05-.43,1.85-2.01-.12-.91.74-1.58,1.46-2.07,1.1-.75,2.65.11,2.84,1.51.06.46-.08.98.41,1.3.49.31.98.38,1.59.27,1.1-.21-.03-.84.3-1.23.29-.34.1-.96.54-1.28l-.05-.07q1.63,1.08,2.77-.52c.65,2.77.64,2.73,3.56,2.16,1.33-.26,2.69-.34,4.03-.48,1.27-.13,2.57-.19,3.61-1.04.71-.57,1.57.19,2.23-.4-.9-2.27-.9-2.25-3.18-2.28-.94-.01-1.84-.38-2.81-.34-.85.04-1.73.19-2.81-.24,2.29-.23,4.36-.1,6.41-.55,1.81-.4,2.7.4,3.25,2.27.13.45.16.94.6,1.36,1.53-1.45,3.1-2.76,4.27-4.67.94-1.55,1.81-3.02,2.38-4.76,1.16-3.61,5.64-6.14,9.44-5.59,2.09.3,4.2.03,6.04-.92,1.16-.6,2.22-.77,3.43-.67,1.43.11,2.87.22,4.31.09.94-.09,1.89.03,2.76-.58.6-.42,1.53-.45,2.08-.08,2.46,1.65,5.44,1.71,8.07,2.79.97.4,1.97.75,2.04,2.04-.05.1-.1.2-.14.3-.46.45-.57.95-.18,1.49.73,1,1.04,2.23.02,2.98-1.18.88-1.95-.49-2.81-1.1-.19-.14-.28-.38-.44-.56,2.05,2.18,2.86,2.43,4.67,1.39.1-.04.21-.08.31-.12,2.33,2.01,3.23,5.16,5.66,7.09,2.08,1.65,4.38,2.83,7.07,3.09,1.12.11,2.17.43,3.18.93.85.42,1.75.9,2.66.99,1.6.16,2.47,1.15,2.92,2.42.73,2.06,1.44,4.14,1.19,6.44-.21,1.96-.15,3.96.89,5.77.08.12.13.17.13.17.03.06-.03.03-.19-.11Z"/>
  <path class="cls-1" d="m324.63,74.69c0,3.2-.11,6.4.02,9.59.35,8.79-7.23,15.58-16.82,14.73-4.05-.36-7.56-1.96-10.28-5.05-2.13-2.43-3.34-5.29-3.37-8.51-.07-7.43-.04-14.86-.02-22.3,0-1.8.06-1.82,1.95-1.85,2.08-.03,4.16-.03,6.23,0,1.7.03,1.79.08,1.8,1.77.04,4.24.02,8.47.02,12.71,0,2.96,0,5.91.04,8.87.04,2.13,1.1,3.63,3.07,4.44,2.04.85,3.92.49,5.62-.86,1.44-1.14,1.82-2.76,1.82-4.5,0-3.52,0-7.03,0-10.55,0-3.36-.02-6.71.01-10.07.02-1.73.08-1.78,1.74-1.81,2.08-.04,4.16-.04,6.23,0,1.85.03,1.89.06,1.91,1.89.03,3.84,0,7.67,0,11.51Z"/>
  <path class="cls-1" d="m362.72,98.1c-3.24,0-6.49,0-9.73,0-.54,0-.85-.39-1.06-.84-.3-.65-.64-1.29-.86-1.98-.35-1.09-1.04-1.44-2.16-1.42-3.44.06-6.87.05-10.31,0-1.08-.01-1.93.2-2.17,1.36-.57,2.68-2.34,3.21-4.79,2.96-1.82-.18-3.67,0-5.51-.05-1.72-.04-1.8-.17-1.08-1.82.7-1.61,1.47-3.19,2.2-4.79,4.4-9.58,8.78-19.17,13.19-28.74.32-.7.43-1.7,1.33-1.86,1.33-.23,2.74-.34,4.03.07.79.24.92,1.25,1.25,1.96,3.38,7.32,6.74,14.65,10.11,21.98,1.63,3.56,3.27,7.11,4.89,10.67.32.7.86,1.35.66,2.49Z"/>
  <path class="cls-1" d="m277.14,60.76c2.63.03,4.81.45,6.87,1.42,1.69.8,3.12,1.92,4.19,3.49.61.9.81,1.64-.17,2.48-1.33,1.14-2.57,2.4-3.81,3.65-.64.64-1.13.65-1.8,0-1.32-1.29-2.98-1.81-4.8-1.85-.9-.02-1.76.18-2.47.75-1.02.81-1.03,1.78,0,2.59.96.74,2.12,1.1,3.24,1.53,2.76,1.07,5.5,2.18,7.82,4.11,3.37,2.8,4.78,6.32,3.82,10.66-.6,2.71-2.19,4.76-4.44,6.32-5.52,3.81-14.6,3.5-19.84-.68-.25-.2-.49-.41-.72-.63-2.32-2.21-2.32-2.64-.02-4.9.97-.95,1.97-1.88,2.9-2.86.68-.72,1.23-.83,1.96-.02,1.33,1.5,3.12,2.2,5.04,2.56,1.36.25,2.72.18,4-.39,1.53-.68,1.78-1.83.6-2.99-.62-.61-1.36-1.12-2.13-1.53-1.56-.81-3.16-1.53-4.76-2.27-1.75-.81-3.42-1.74-4.85-3.05-4.29-3.9-4.49-10.17-.44-14.32,2.79-2.86,6.31-3.93,9.84-4.06Z"/>
  <path class="cls-1" d="m407.37,60.77c2.86.1,5.9.87,8.48,3.01.74.62,1.33,1.37,1.87,2.17.54.81.44,1.44-.26,2.09-1.29,1.19-2.56,2.41-3.79,3.67-.69.71-1.22.78-1.98.03-1.18-1.16-2.7-1.67-4.34-1.78-.72-.05-1.44-.01-2.11.3-.75.35-1.44.76-1.49,1.7-.04.85.55,1.32,1.21,1.63,1.23.58,2.48,1.09,3.74,1.6,2.3.93,4.56,1.93,6.53,3.48,6.46,5.06,5.84,14.03-1.41,17.86-6.06,3.2-12.15,2.71-18.02-.79-.34-.2-.65-.46-.96-.72-2.84-2.4-2.87-3.03-.28-5.57.29-.28.57-.56.87-.83.88-.81,1.64-2,2.67-2.32,1.08-.33,1.63,1.27,2.62,1.78,2.2,1.14,4.43,1.8,6.9,1.09.87-.25,1.71-.58,1.86-1.62.14-.91-.45-1.49-1.09-2-1.45-1.16-3.15-1.88-4.82-2.64-1.6-.72-3.19-1.46-4.69-2.39-7.27-4.48-6.72-14.3,1.12-18.18,2.18-1.08,4.51-1.59,7.36-1.59Z"/>
  <path class="cls-1" d="m226.16,80.42c.86-.87,1.05-1.75,1.4-2.55,2.06-4.77,4.19-9.51,6.09-14.34.71-1.81,1.68-2.4,3.56-2.29,2.61.16,5.24.04,7.72.04.47.84.06,1.33-.16,1.81-5.1,11.21-10.2,22.41-15.33,33.6-.28.62-.38,1.52-1.26,1.6-1.34.12-2.72.31-4.02-.16-.3-.11-.5-.6-.66-.95-5.26-11.57-10.51-23.14-15.76-34.72-.13-.29-.23-.6.13-1.16,2.92,0,6.02.01,9.11,0,1.04,0,1.31.73,1.63,1.48,1.22,2.87,2.44,5.74,3.67,8.6,1.25,2.93,2.51,5.86,3.87,9.05Z"/>
  <path class="cls-1" d="m350.44,26.39c-.04.76-.1,1.52-.1,2.27,0,6.24,0,12.47-.02,18.71,0,.75.34,1.78-.57,2.15-1.03.42-2.21.28-3.3.04-.3-.07-.43-.45-.45-.78-.03-.48-.04-.96-.04-1.44,0-10.95,0-21.91,0-32.86,0-.62-.15-1.27.3-1.98.97.22,1.19,1.16,1.6,1.84,4.83,8,9.63,16.03,14.45,24.04.45.74.92,1.46,1.63,2.57,3.11-4.97,5.89-9.76,8.76-14.5,2.84-4.69,5.66-9.4,8.49-14.1.96.56.74,1.27.74,1.85.02,11.11.02,22.23,0,33.34,0,.74.32,1.8-.71,2.05-1.07.26-2.23.3-3.3-.11-.21-.08-.35-.52-.38-.82-.07-.63-.06-1.28-.06-1.92,0-5.92,0-11.83-.01-17.75,0-.76.22-1.58-.48-2.65-4.33,7.59-8.57,15-13.05,22.85-4.51-7.92-8.79-15.42-13.07-22.93-.13.04-.27.07-.4.11Z"/>
  <path class="cls-1" d="m366.56,79.72c0-5.36,0-10.72,0-16.08,0-2.33.03-2.33,2.42-2.35,1.92-.01,3.84.04,5.76-.01,1.22-.04,1.73.42,1.7,1.67-.06,2.24-.01,4.48-.01,6.72,0,5.44,0,10.88,0,16.32,0,2.67-.32,2.66,2.55,2.66,3.12,0,6.24-.02,9.36,0,1.95.02,1.97.05,2,2.05.03,1.92-.04,3.84.02,5.76.04,1.24-.47,1.71-1.69,1.69-2.96-.04-5.92,0-8.88,0-3.52,0-7.04,0-10.56,0-2.66,0-2.67-.01-2.68-2.59,0-5.28,0-10.56,0-15.84Z"/>
  <path class="cls-1" d="m258.83,79.74c0,5.35,0,10.71,0,16.06,0,2.29-.03,2.31-2.2,2.34-2.08.02-4.16-.03-6.23.01-1.13.02-1.62-.46-1.57-1.56.02-.4,0-.8,0-1.2,0-10.47,0-20.94,0-31.41,0-.48.03-.96.03-1.44,0-.92.49-1.26,1.36-1.25,2.24.02,4.48-.03,6.71,0,1.84.03,1.89.06,1.9,1.9.03,4.95.01,9.91.01,14.86,0,.56,0,1.12,0,1.68Z"/>
  <path class="cls-1" d="m215.19,50.22c-4.56-.25-8.55-1.57-11.39-5.3-.46-.6-1.29-1.28-.74-2.09.62-.92,1.62-1.58,2.65-1.97.62-.24.86.57,1.21.97,3.12,3.52,6.97,4.61,11.49,3.48,1.33-.33,2.55-.95,3.57-1.89,2.27-2.08,2.32-5.01.14-7.18-1.21-1.2-2.71-1.97-4.25-2.65-1.68-.74-3.41-1.37-5.11-2.06-1.71-.69-3.38-1.46-4.86-2.57-3.55-2.66-4.51-6.97-2.45-10.9,3.75-7.13,15.73-7.71,20.12-.95.41.63,1.2,1.34.64,2.13-.6.83-1.55,1.43-2.55,1.7-.77.21-.94-.72-1.33-1.17-2.4-2.81-5.92-3.78-9.31-2.53-1.07.39-2.01.99-2.78,1.83-2.08,2.25-1.83,5.01.64,6.82,1.37,1,2.94,1.6,4.51,2.21,2.61,1.01,5.23,2,7.63,3.45,3.3,2,5.43,4.7,5.11,8.8-.31,4-2.58,6.6-6.02,8.31-2.19,1.09-4.55,1.44-6.91,1.55Z"/>
  <path class="cls-1" d="m274.17,28.86c.86-.43,1.11-1.22,1.5-1.84,2.66-4.18,5.29-8.39,7.94-12.57.89-1.41,3.55-2.16,5.02-1.47.36.17.47.48.33.77-.27.58-.61,1.12-.94,1.67-3.48,5.65-6.94,11.31-10.46,16.93-.71,1.13-1.05,2.26-1.03,3.59.06,4,.04,8,0,11.99-.01,1.68-.1,1.71-1.79,1.78-2.59.1-2.63.07-2.64-2.61,0-.56,0-1.12,0-1.68,0-3.2-.04-6.4.02-9.6.02-1.26-.32-2.32-.97-3.37-3.46-5.57-6.87-11.16-10.3-16.75-.33-.54-.68-1.09-.99-1.64-.34-.62-.24-1.03.55-1.18,2.61-.49,3.64-.04,5.11,2.29,2.85,4.52,5.71,9.05,8.64,13.69Z"/>
  <path class="cls-1" d="m408.99,33.43c0-4.63,0-9.26,0-13.9,0-2.26-.03-2.27-2.2-2.29-2.16-.02-4.31.02-6.47-.01-1.87-.03-1.88-.05-1.92-1.86-.01-.48.01-.96.02-1.44,0-.69.41-1,1.05-1.04.48-.03.96-.03,1.44-.03,6.87,0,13.74,0,20.6,0,.32,0,.64.02.96,0,.96-.03,1.52.34,1.47,1.39-.02.48-.03.96,0,1.44.09,1.12-.38,1.58-1.52,1.56-2.31-.05-4.63-.02-6.95,0-2.06.02-2.09.04-2.09,2.15-.01,8.7,0,17.41,0,26.11,0,.64,0,1.28,0,1.92-.03,2.28-.05,2.3-2.24,2.29-2.1-.01-2.14-.01-2.15-2.15-.02-4.71,0-9.42,0-14.14Z"/>
  <path class="cls-1" d="m307.11,31.27c0-5.44,0-10.87.01-16.31,0-.68-.24-1.48.52-1.97.44-.28,3.18-.15,3.53.12.28.22.34.53.35.85.02.64.02,1.28.02,1.92,0,8.87,0,17.74,0,26.62,0,.64,0,1.28.03,1.92.02.57.35.86.92.87.56,0,1.12.02,1.68.02,4.4,0,8.79-.01,13.19,0,2,.01,2,.04,2.03,1.99.04,2.34,0,2.39-2.37,2.4-5.91.01-11.83.02-17.74,0-2.12,0-2.15-.04-2.16-2.13-.02-5.44,0-10.87,0-16.31Z"/>
  <path class="cls-1" d="m256.89,13.11c-.26,1.11-.89,1.65-1.38,2.27-3.71,4.71-7.44,9.41-11.15,14.13-1.16,1.48-1.17,1.51.06,2.98,4.09,4.92,8.21,9.82,12.3,14.74.53.64,1.28,1.19,1.5,2.47-1.46,0-2.78,0-4.1,0-.73,0-1.16-.46-1.58-.95-4.62-5.52-9.22-11.06-13.86-16.56-.64-.76-.6-1.31,0-2.06,4.28-5.39,8.53-10.79,12.76-16.21.6-.77,1.3-1.12,2.26-1.05,1.01.07,2.05-.14,3.19.25Z"/>
  <path class="cls-1" d="m233.23,31.26c0-5.43,0-10.86.01-16.29,0-.68-.25-1.48.52-1.96.45-.28,3.16-.17,3.53.1.29.21.35.52.36.84.02.56.03,1.12.03,1.68,0,10.46,0,20.92,0,31.38,0,.4-.03.8,0,1.2.08,1.16-.51,1.58-1.59,1.5-.24-.02-.48,0-.72,0-2.09-.01-2.12-.01-2.13-2.16-.02-5.43,0-10.86,0-16.29Z"/>
  <path class="cls-1" d="m338.51,31.24c0,5.43.01,10.86-.02,16.29,0,.73.38,1.78-.67,2.06-1.07.28-2.22.28-3.3-.07-.3-.1-.4-.48-.41-.81-.02-.48-.03-.96-.03-1.44,0-10.7,0-21.4,0-32.09,0-.32.02-.64,0-.96-.04-.89.36-1.35,1.26-1.34.32,0,.64-.01.96-.01,2.12,0,2.19.04,2.2,2.1.02,4.07,0,8.14,0,12.21,0,1.36,0,2.71,0,4.07Z"/>
  <path class="cls-1" d="m393.71,31.39c0,5.43,0,10.86-.01,16.29,0,.67.25,1.48-.58,1.92-.51.27-3.19.11-3.51-.17-.27-.24-.3-.55-.31-.87-.02-.56-.02-1.12-.02-1.68,0-10.38,0-20.76,0-31.13,0-.56.02-1.12.01-1.68,0-.79.39-1.17,1.17-1.19.4,0,.8-.03,1.2-.02,1.97.03,2.04.06,2.05,2,.02,5.51,0,11.02,0,16.53Z"/>
  <path class="cls-1" d="m104.88.86c-.12,1.55-1.25,1.14-2.12,1.15-.12,0-.38-.43-.33-.52.61-.98,1.49-.96,2.45-.63Z"/>
  <path class="cls-1" d="m72.33,19.17c-.55-.05-.69-.48-.71-.97-.01-.23.07-.54.31-.53.66.03.94.48.95,1.09,0,.27-.26.36-.54.42Z"/>
  <path class="cls-1" d="m73.67,18.17c-.03-.15-.08-.3-.07-.45,0-.1.1-.2.15-.3.03.15.07.3.1.45.04.22-.02.31-.18.29Z"/>
  <path class="cls-1" d="m78,17.95c-.36-.25-.53-.58-.55-1,.53.14.87.37.55,1Z"/>
  <path class="cls-1" d="m71.92,15.91c.21-.7.66-.81,1.27-.51-.35.38-.99.02-1.29.51-.02-.13.01.02.01,0Z"/>
  <path class="cls-1" d="m76.55,16.84c.33.36.55.97.16,1.12-.56.22-.35-.42-.36-.72,0-.12.12-.26.2-.4Z"/>
  <path class="cls-1" d="m67.35,16.48c-.08-.02-.15-.03-.22-.05.1-.04.2-.12.3-.12.13,0,.26.06.38.1-.15.02-.31.04-.46.06Z"/>
  <path class="cls-1" d="m71.91,15.91c-.46.02-.93.05-1.87.1.93-.37,1.4-.18,1.88-.1,0,0,0,0,0,0Z"/>
  <path class="cls-1" d="m75.12,17.03c.33.37.65.94.15,1.15-.54.23-.37-.44-.38-.76,0-.12.15-.25.23-.39Z"/>
  <path class="cls-1" d="m131.01,8.51c.66.32.35.97.49,1.46,0,0,.06-.08.06-.08-.96.13-.87-.49-.78-1.1.07-.09.15-.19.22-.28Z"/>
  <path class="cls-1" d="m130.55,7.05c.71.31.59.88.46,1.45,0,0,.07-.06.07-.06-.97.12-.88-.49-.77-1.12.08-.09.16-.18.23-.28Z"/>
  <path class="cls-1" d="m130.06,5.59c.6.34.57.89.48,1.46,0,0,.05-.05.05-.05-1.17-.15-.87-.79-.48-1.45l-.06.03Z"/>
  <path class="cls-1" d="m79.22,17.04c-.1-.07-.19-.14-.29-.21.35-.14.16.17.23.27l.06-.06Z"/>
  <path class="cls-1" d="m80.49,17.29c.12-.11.11-.25-.04-.27-.16-.01-.17.11-.03.21.26-.19-.15.03.14-.1.05-.03.03.03-.07.16Z"/>
  <path class="cls-1" d="m67.66,18.06s.07-.09.1-.13c-.05.02-.1.05-.16.07,0,0,.05.06.05.06Z"/>
  <path class="cls-1" d="m80.43,17.23c.05,0,.11,0,.16.01,0-.15-.03-.14-.1.04,0,0-.06-.06-.06-.06Z"/>
  <path class="cls-1" d="m79.15,17.11c.07.02.2.07.2.07-.04.14-.09.1-.13-.13,0,0-.06.06-.06.06Z"/>
  <path class="cls-1" d="m157.8,108.57c-10.31,0-20.64.32-30.94-.11-6.82-.29-12.74-3.51-15.71-10.71-2.6-6.32-.96-13.59,4.04-18.28,2.58-2.42,5.63-3.91,9.17-4.29,1.62-.17,2.11.03,2.52-2.35,1.38-7.99,5.89-13.65,13.34-16.92,1.93-.85,3.92-1.33,6.05-1.21,1.12.07,2.24.05,3.36,0,8.34-.33,14.05,3.91,18.31,10.6,1.08,1.7,1.8,3.58,2.26,5.53.24.99.59,1.48,1.71,1.55,7.68.45,13.06,4.27,16.06,11.33.49,1.16,1.23,1.24,2.22,1.33,4.59.42,7.93,2.66,9.94,6.87,2.94,6.17-.67,13.32-6.34,15.43-2.18.81-4.35,1.31-6.73,1.28-9.75-.1-19.51-.04-29.26-.04Z"/>
  <path class="cls-1" d="m46.2,108.57c-10.39,0-20.8.35-31.17-.11-9.01-.4-13.79-7.82-11.58-15.27,1.31-4.44,4.44-7.09,9.01-7.96.39-.08.8-.2,1.18-.17,1.42.11,2.1-.54,2.61-1.86,1.21-3.13,3.31-5.63,6.05-7.57,2.74-1.94,5.79-3.03,9.13-3.26q1.93-.13,2.51-2.07c2.08-6.95,6.52-11.79,13.2-14.57,1.7-.71,3.48-1.15,5.37-1.04,1.2.07,2.4.05,3.6,0,8.75-.31,14.6,4.19,18.8,11.37,1.18,2.02,1.82,4.25,2.24,6.55.41,2.28.4,2.24,2.54,2.56,6.59,1,11.14,4.65,13.39,10.89,3.24,8.96-1.75,18.61-10.86,21.37-2.53.77-5.06,1.2-7.74,1.17-9.43-.1-18.86-.04-28.29-.04Z"/>
  <path class="cls-1" d="m148.41,45.51c-.62-2.65-2.02-4.85-3.86-6.81l-.06-.17.12.14c-.11.38-.23.76-.34,1.14l.06-.02c-.73-1.17-2.01-2-2.21-3.51,0,0-.05-.11-.06-.11,0,0,.08-.07.08-.07,0,0,.09-.01.08,0,0,.01-.07-.03-.08-.04,0,0-.07-.06-.07-.07,0,0,0-.1,0-.1s.03-.09.03-.09c-.89-2.15-2.15-3.83-4.75-3.92-.92-.03-1.65-.56-2.28-1.17-.95-.93-2.33-1.36-3.01-2.6-.05-.09-.09-.17-.14-.26-.08-.06-.16-.13-.25-.19-.09-.06-.18-.11-.28-.17-2.1-2.01-4.82-2.95-7.46-3.64-5.06-1.34-10.14-2.83-15.44-2.66.03,0,.08,0,.24-.01,6.93.25,13.53,1.87,19.9,4.46.57.23,1.2.48,1.49,1.12-.01.13-.03.26-.04.38-.49.01-.97.03-1.46.04-.35-.28-.84-.3-1.17-.63-1.5-.53-3.02-1.01-4.59-1.28-.59-.53-1.48.04-2.05-.56-3.22-1.23-6.49-2.04-9.97-1.37-1.13.5-2.32.13-3.45.22.03,0,.06.03.09.03,1.21-.18,2.46.36,3.58-.4,3.29-.34,6.44.27,9.52,1.36.58.63,1.42.35,2.11.6,1.58.45,3.19.79,4.72,1.37.34.35.83.41,1.25.61,1.97,2.11,4.5,3.48,6.77,5.18.06.05.13.11.2.12,4.24.48,5.19,4.04,6.81,7.08,1.08,2.03,2.4,3.94,3.4,6.03,1.03,2.14,2.02,4.3,3.04,6.46-2.05.64-2.13.68-2.8-.89-1.4-3.3-2.71-6.65-4.48-9.75-1.9-3.32-4.39-6.17-8.22-7.45-3.53-3.24-8.05-4.42-12.38-6-.3-.11-.57-.26-.83-.44-5.13-2.08-10.45-1.69-15.77-1.16-.79.08-1.59.09-2.38.18-5.67,1.59-10.7,4.47-15.52,7.78-1.16,1.23-3.13,1.39-4,3.01-2.79,2.76-4.56,6.15-6.02,9.72-.1.13-.17.29-.2.45,0-.01-.2-.12-.19-.14.2-.02.32-.11.38-.3,1.46-3.57,3.22-6.95,6-9.69.87-1.65,2.86-1.82,4.04-3.06,4.88-3.33,9.95-6.29,15.74-7.79,3.09-.34,6.18-.49,9.29-.54,2.92-.04,5.68.45,8.37,1.49,3.46,1.65,7.32,2.32,10.62,4.39,1.01.63,1.83,1.49,2.88,2.05,2.32,2.92,5,5.51,7.27,8.49,2.2,2.91,3.14,6.21,4.02,9.8-1.36.33-2.65.64-3.93.94-.52.12-.94-.02-1.16-.56-.18-.44-.37-.88-.58-1.31-4.93-10.08-12.99-16-24.03-17.74-3.55-.56-7.17-.16-10.75.15-.71.06-1.21.36-1.28,1.14l-.02-.04c.82-.71,1.8-1.16,2.84-.92,1.95.45,3.91.14,5.85.26,5.65.35,10.91,2.08,15.68,5.16.92.59,1.92,1.15,2.2,2.36l.04-.04c-.89.05-1.46-.57-2.11-1-5.59-3.72-11.75-5.65-18.46-5.87-.4-.01-.8.02-1.2.03-1.53.07-9.12,2.16-10.14,2.8l.04.04c-.2-.6.19-.87.61-1.13.6-.36,1.36-.5,1.76-1.21-.57-.55-1.07-.04-1.5.14-3.76,1.65-7.13,3.87-10.08,6.77-3.65,3.59-6.38,7.71-8.1,12.54-.73,2.06-1.24,4.13-1.24,6.31.02,3.67-.12,7.36,1.21,10.89.12.31.16.66-.21.79-.35.12-.61-.12-.72-.45-.1-.3-.15-.62-.22-.93-.84-4.08-2.58-7.73-5.35-10.83-.72-.81-.97-1.56-.74-2.59.42-1.92.75-3.85,1.01-5.81-1.17,1.84-1.03,4.09-2.07,6.1-.86-.17-1.34-.95-2.01-1.44-.81-.59-1.01-1.14-.71-2.19.93-3.23,2.18-6.34,3.32-9.49.29-.81.89-1.54.71-2.48,1.64-1.89,2.56-4.29,4.28-6.13.57-1.05,1.6-1.7,2.26-2.68.17-.26.39-.49.62-.71.22-.22.44-.44.66-.66.23-.19.39-.5.76-.45.9.84.04,1.52-.21,2.25-.18.25-.41.46-.63.69-.31.41-.58.85-.85,1.29-.19.25-.41.46-.63.68-.22.22-.46.44-.64.7-1,1.19-1.86,2.47-2.53,3.86-.36.49-.7,1-1.02,1.51-.28.3-.32.71-.54,1.04-.28.3-.25.75-.54,1.05-.26.32-.27.77-.56,1.07-.32,1.06-.87,2.02-1.36,2.99-.07.1-.13.22-.17.32,0-.02-.15-.05-.13-.08.14-.08.24-.16.32-.29.43-.94,1.05-1.77,1.23-2.8.28-.31.44-.68.56-1.08.28-.3.34-.72.55-1.05.29-.3.25-.76.54-1.06.36-.5.67-1.02,1.02-1.53.75-1.38,1.53-2.74,2.6-3.91.17-.26.39-.48.61-.7.22-.22.44-.43.63-.67.27-.43.57-.85.85-1.27.2-.23.43-.44.62-.69.33-.7.99-1.34.51-2.21-.06-.05-.12-.11-.17-.16,0,0-.23-.02-.23-.02,0,0-.19.14-.19.14-.18.16-.36.33-.53.51-.19.19-.38.38-.57.57-.21.21-.41.42-.57.67-.65.96-1.65,1.61-2.22,2.63-1.7,1.88-2.72,4.22-4.25,6.21-1.44,1.18-1.73,2.98-2.29,4.56-.82,2.32-1.95,4.55-2.42,7-.08.41-.13,1-.81,1.02-.47-.6-.2-1.25.03-1.8,1.05-2.49,1.36-5.25,2.75-7.63.39-.68.57-1.48.84-2.23l-.02-.19v-.19s-.01-.19-.01-.19v-.19s.02-.19.02-.19c.25-.93.35-1.94,1.43-2.37,0,0,.12-.03.12-.02,0,0,.11-.05.11-.06,0,0,.06-.12.06-.13,0,0,.06-.13.07-.14.05-.11.08-.22.09-.34.01-.13.04-.26.1-.38.07-.13.15-.24.25-.34.1-.11.2-.22.3-.33,0,0,.14-.18.14-.18.09-.13.16-.27.2-.42.05-.15.13-.29.24-.41.11-.12.22-.24.33-.36.06-.06.11-.12.17-.17.12-.11.23-.23.34-.35.05-.06.1-.13.16-.19.09-.14.16-.28.21-.44.06-.15.14-.29.24-.43.1-.13.19-.27.27-.41.04-.07.09-.14.13-.21.09-.14.17-.28.24-.43.06-.15.13-.3.2-.44.09-.14.19-.26.29-.38.05-.06.11-.12.16-.18.11-.11.23-.23.34-.34,0,0,.17-.17.17-.17.11-.11.23-.23.34-.34,0,0,.17-.17.17-.17.11-.11.23-.22.36-.32,0,0,.21-.12.21-.12.16-.06.31-.06.47-.01,0,0,.24.04.24.04.54-.01,1.1-.33,1.04-.76-.11-.87.42-1.3.85-1.85,1.37-1.76,2.99-3.04,5.37-2.94.12.09.24.18.37.28-.12-.09-.25-.18-.37-.27.59.59-.08,1.16-.05,1.79.61.29,1.02-.19,1.45-.43,2.06-1.15,4.07-2.4,6.37-3.06.33-.09.55-.29.62-.63.56-.12,1.19.06,1.68-.36,1.08-.33,2.2-.54,3.27-.9.33-.31.75-.24,1.15-.25-.37,0-.73,0-1.08.18-.28.15.12.03-.18.14-1.07.25-2.14.54-3.2.85-.47.42-1.09.18-1.61.38-.23-.07-.89.03-.62-.2.97-.81,2.11-1.43,3.21-2.07,1.06-.62,1.76-1.78,3.24-1.81,1.34-.03,2.68-.37,4.02-.62,1.42-.27,2.83-.28,4.28-.19,3.03.18,6.03.71,9.05.92,1.42.1,2.86-.11,4.29-.17.1,0,.2-.02.3-.02.3-.02.61-.02.91,0,.2.01.41.05.6.1.47.17,1.04.09,1.42.52.05.09.09.18.14.28.45,1.14-.81.36-.95.84.13.59.66.61,1.09.78,3.67,1.39,7.2,3.02,10.27,5.54.3.25.74.64,1.02.57,2.2-.52,3,1.29,4.22,2.42,4.12,3.82,6.81,8.61,9.14,13.63.47,1.01.85,2.04.65,3.23-.19,1.16.7,2.09.84,3.2.06.45.25,1.03-.34,1.24-.67.24-1.06-.23-1.27-.78-.52-1.33-1.07-2.67-1.48-4.04-.23-.78-.54-1.47-1.08-2.07l.07.07Z"/>
  <path class="cls-1" d="m93.39,43.36c.22.29.22.62.17.95-.03.26-.22.41-.39.58l-.51.51-.52.52-.53.53c-.18.18-.37.35-.52.57-.11.23-.12.5-.3.7-.17.21-.37.4-.56.6-.11.13-.18.29-.21.45,0,.14-.07.26-.18.34,0-.01-.01.17,0,.16,0-.01-.14-.07-.13-.08,0,0,.15-.05.16-.06.09-.13.14-.26.17-.42.04-.17.12-.32.23-.44.18-.18.36-.35.52-.55.18-.2.18-.47.29-.7.15-.21.34-.38.52-.57l.54-.54.54-.54c.18-.18.36-.36.53-.53.17-.18.38-.33.37-.61.61-.03,1-.43,1.43-.79,2.96-2.44,6.22-4.33,9.92-5.4-.05-.5-.56-.3-.68-.5-.21-.36.23-.26.37-.3,2.47-.77,5.01-.97,7.56-.81,5.2.34,9.96,1.96,14.33,4.84,2.58,1.71,4.25,4.29,6.49,6.32.42.38.77.96.37,1.49-.35.47-.88.08-1.28-.11-.37-.17-.72-.34-1.12-.12l.06-.05c-.64,1.01-1.19.43-1.66-.14-1.36-1.67-2.75-3.29-4.54-4.51-.31-.21-.57-.58-1.03-.35-.41.54.11.71.4.86,1.81.97,2.37,2.89,3.42,4.43,1.51,2.23,2.93,4.53,4.27,6.88.47.83,1.36,2.06-.59,2.46-.15,1.15-1.21,1.51-1.77,2.41-.76-1.14.07-2.47-.99-3.27-.11-.5-.04-1.03-.28-1.51-.29-.3-.28-.76-.56-1.08-.27-.31-.26-.77-.55-1.07-.27-.43-.57-.84-.84-1.26-.29-.3-.26-.77-.56-1.06-.21-.21-.43-.41-.6-.65-.15-.27-.33-.51-.53-.71.02.02-.06-.07-.03-.04.03.03,0,0,.03.03.03.03.06.06.08.09.21.23.37.47.52.71.18.23.4.43.59.65.23.33.27.76.55,1.05.26.43.55.84.83,1.25.28.3.25.75.53,1.05.24.32.26.75.54,1.04.24.45.1.98.31,1.43-.06,1.76.59,3.59-.68,5.31-.26-6.27-2.77-11.24-8.01-14.71.06-.8-.5-1.01-1.12-1.16-.34-.32-.76-.4-1.2-.38-.11-.07-.23-.1-.36-.08,0,0,.12-.13.13-.12.05.18.15.25.33.21.52-.08.9.23,1.3.46.56.15,1.15.27.92,1.08-3.29-1.23-6.61-2.23-10.19-2.25-1.73-.01-3.31.28-4.89.91-2.39.95-4.59,2.29-6.63,3.8-1.62,1.2-2.63,3.03-3.36,4.88-2.63,6.69-2.13,13.06,2.83,18.52,2.42,2.66,5.43,4.68,9.25,4.99,1.51.12,3.01.3,4.7.47-.42,1.36-1.6,2.19-2.08,3.4-.21.53-.79.37-1.06.73.38.22.45.48.34.95-.19.82-.44,1.28-1.42,1.15-1.64-.22-3.43.12-4.93-.22-3.03-.67-6.2-1.38-8.09-4.46-1.37-2.23-3.48-3.92-4.83-6.23-2.57-4.4-3.86-9.08-3.68-14.16.01-.4,0-.8-.05-1.19-.02-.13-.17-.25-.25-.38-.83,1.11-1.03,5.15-.48,8.02.53,2.76,1.56,5.35,2.74,8.17-1.92-.44-2.89-1.33-3.44-3.16-.96-3.18-1.63-6.4-1.18-9.67.39-2.79,1.27-5.51,1.96-8.38.58.8.14,1.75.77,2.36.13.27.28.3.47.06.12-.08.16-.2.12-.34,0,0-.02.2-.02.2-.08.12-.17.23-.28.33-.17.03-.29-.03-.36-.18-.16-4.13,2-7.2,4.62-10.04.96-1.05,1.99-2.03,2.99-3.05,0,0-.07-.04-.07-.04Z"/>
  <path class="cls-1" d="m121.97,71.79c-2.89,2.44-6.05,4.23-9.82,5.04-3.91.84-7.23-.05-10.21-2.61-2.72-2.33-4.91-4.93-5.74-8.58-2.24-9.85,5.12-16.36,11.89-17.33,2.54-.37,5.03.02,7.49.96,2.42.93,4.66,1.98,6.41,3.96,2.6,2.92,3.44,6.4,3.39,10.19,0,.72-.09,1.43-.14,2.15,0,.09.02.18.03.27.02.27.02.53.01.8-.01.18-.05.35-.12.52-.14.23-.28.46-.34.72-.04.18-.1.35-.18.52-.14.24-.26.5-.37.76-.1.17-.21.33-.34.47-.44.79-.96,1.51-1.67,2.08-.1.03-.19.06-.29.09Z"/>
  <path class="cls-1" d="m67.19,33.45c1.1.15,1.35-.86,1.78-1.57.62.66-.77,2.04.99,2,.05,0,.12.43.16.66.08.47.15.94.22,1.41.49,3.46.38,6.61-3.28,8.56-.98.52-2.37,1.25-1.86,2.93l.06-.07c-.78.88-.55,1.95-.58,2.97-.03,1.02,0,2.04,0,3.15-1.74-.26-3.27-1.09-4.98-1.05-.56.01-.87-.35-.9-.9-.02-.24.05-.48.05-.71.02-.91-.49-1.71-1.29-1.65-.77.06-.9.96-.65,1.73.29.91.25,1.59-.99,1.55-3.92-.15-7.81-.08-11.7,1.94,0-4.46-.01-8.52,0-12.57,0-1.2.09-2.39.13-3.59.04-1.17.74-1.93,1.81-1.72,2.39.46,4.58-.47,6.85-.77,2.72-.37,5.4-.4,8.11-.08,2.29.27,4.59.44,6.9.66.44-1.31-1.8-1.13-1.25-2.42l.05-.23.16-.16.22-.05Z"/>
  <path class="cls-1" d="m18.9,74.99c-1.39-1.35-2.09-2.93-2.1-4.9-.03-6.07,1.94-8.74,7.92-10.05,1.35-.29,1.38-1.11,1.58-1.99.87-3.65,3.05-6.23,6.26-8.08,1.92-1.1,3.97-1.04,6.05-1.03,4.39.02,4.35,0,4.48,4.44.04,1.18-.34,1.88-1.33,2.53-4.63,3.03-7.88,7.17-9.66,12.42-.33.96-.68,1.7-1.88,1.82-4,.41-7.52,2.03-10.65,4.53-.17.14-.42.19-.67.3Z"/>
  <path class="cls-1" d="m116.37,107.94h-29.1c6-4.09,8.87-9.44,9.21-15.95.46-.39.75-.21,1.01-.06,2.68,1.57,5.57,2.38,8.67,2.35,1.11-.01,1.7.29,1.96,1.52,1.03,4.82,3.66,8.61,7.71,11.42.17.12.27.35.54.72Z"/>
  <path class="cls-1" d="m181.76,67.02c.08,1.15-.05,2.48-.74,3.72-.45.8-.89,1.21-1.89.78-1.69-.74-3.48-1.2-5.32-1.36-1.04-.09-1.51-.65-1.82-1.59-2.03-6.12-5.93-10.7-11.59-13.75-1.11-.6-1.43-1.25-1.13-2.46.34-1.4.28-2.87.02-4.29-.22-1.23.28-1.43,1.39-1.54,5.52-.54,10.45,4.16,11.38,8.75.36,1.78,1.18,2.23,2.73,2.58,4.6,1.04,6.99,4.21,6.98,9.17Z"/>
  <path class="cls-1" d="m122.17,17.29c.89-.3,1.61-.39,2.18-.9-.15-.12-.28-.3-.36-.28-4.5,1-9.04.35-13.56.4-.56,0-1.24-.18-1.64.08-2.52,1.59-5.25,1.05-7.93.87-1.06-.07-2.53-.25-2.99.33-.78.98-1.57.65-2.34.64-1.44,0-1.96-.66-1.83-2.11.07-.79.21-1.58.41-2.35.71-2.78.77-2.53,3.61-3.06,2.81-.53,5.55.02,8.29-.15,3.03-.18,6.05-.29,9.09-.3,4-.02,7.96.39,11.91,1,1.5.23,2.31.92,2.52,2.4.08.55.27,1.09.37,1.64.27,1.54,0,1.88-1.58,1.65-2.01-.3-3.94.8-6.15.15Z"/>
  <path class="cls-1" d="m97.25,4.8c1.59-.91,3.4-.97,5.11-1.03,5.58-.22,11.15-.97,16.75-.5.24.02.48-.02.72,0,1.2.11,2.8.16,3.28,1.1.61,1.17.45,2.77.51,4.18.03.73-.65.76-1.23.83-3.1.38-6.21.5-9.33.32-2.88-.16-5.75-.22-8.62,0-.47.04-.99.09-1.43-.04-1.44-.42-2.83-.36-4.26.32-.58-1.14-.52-2.27-.73-3.33-.13-.69-.05-1.47-.79-1.9v.04Z"/>
  <path class="cls-1" d="m143.68,25.24c2,1.06,4.24.39,6.24,1.36,1.11.53,1.71,1.24,2.09,2.41,1.25,3.82,1.6,7.82,2.49,11.7.04.16,0,.34.08.47,1.8,3.22.5,6.67.75,10,.04.49.22,1.27-.61,1.31-.86.05-.98-.69-1.02-1.34-.08-1.29-.54-2.5-.78-3.74-.66-3.36-2.32-6.23-4.13-9.04-.44-.68-.75-1.4-.98-2.17-.33-1.08-.91-2.04-1.59-2.94-.8-1.06-2.24-1.76-1.41-3.63.29-.66-.86-1.63-.99-2.6-.06-.45-.55-.81-.14-1.78Z"/>
  <path class="cls-1" d="m55.67,32.91c1.75-.34,3.52-.42,5.3-.41l-.06-.06c-1.47,1.8-3.51,2.24-5.68,2.33-.57.02-1.36.25-1.07-.93.14-.55-.5-.42-.85-.47-2.83-.38-5.49.26-8.03,1.61-.37-1.43-.24-2.67.13-3.92.27-.92.62-1.83.72-2.77.23-2.17,1.49-3.24,3.52-3.61.71-.13,1.52-.75,1.72.66.07.49.76.43,1.24.43,1.51-.01,3.01,0,4.55.14-1.29.66-2.59,1.22-4.03,1.38-1.24.14-2.32.7-3.18,1.53-.83.79-.46,1.35.61,1.51-.03.18.01.34.12.45-.01-.02.06.19.05.18-.01-.01.14-.13.13-.14,0-.01-.2-.02-.21-.03-.11-.13-.15-.26-.13-.42.98-.99,2.36-.72,3.52-1.12.23-.08.57-.01.58.22.12,1.95,2.03,1.37,3.06,2.21-.53.64-1.99-.08-1.96,1.29l-.05-.06Z"/>
  <path class="cls-1" d="m80.99,23.99c-.9,1.93-.89,3.97-1.89,5.71-.69,1.19-1.41,2.19-3.14,1.96-1.44-.19-4,1.9-4.43,3.24-.15.48-.12.95.09,1.4.36.75.46,1.5.08,2.3-.76-.32-.49-.96-.51-1.47-.07-1.36-.11-2.71-.12-4.07,0-.93-.3-1.93.6-2.68.16-.13.2-.43.24-.66.18-.92-.4-2.16.45-2.69.72-.45,1.87-.13,2.77-.37,1.44-.38,2.97-.67,3.96-2,.39-.53.97-.74,1.9-.68Z"/>
  <path class="cls-1" d="m62.37,24.83c1.32-.02,2.36-.91,3.61-1.15.33-.06.79-.36.46-.86-.3-.46-.77-.67-1.16-.18-.17.21-.18.55-.52.69-.45.19-.87.45-1.29-.01-.36-.39-.52-.8-.05-1.22.44-.39.64-.88.35-1.82,1.67,1.96,4.09,1.4,5.71,2.83-.93,2.22-2.03,4.26-4.01,5.73-1.58-2.13-2.09-2.36-6-2.78.21-.45.9-.29,1.03-.82.05-.09.09-.18.14-.27.42-.42.91-.4,1.43-.21.1.03.19.06.29.1Z"/>
  <path class="cls-1" d="m130.12,5.56c-.02.54-.28,1.16.48,1.45-.12.57-.1,1.1.48,1.44-.02.54.05,1.06.48,1.44-.29,1.44.35,2.96-.25,4.39-.73-.06-.55-.54-.63-.88-.33-1.54-1.1-2.52-2.81-2.77-1.08-.16-2.23-.26-3.41-.9.55-1.35.44-2.84.46-4.3,1.15-.1,1.74.16,2.15,1.34.42,1.2.49,2.75,2.18,3.54,0-.89.85-1.69-.44-2.34-.22-.11-.3-.55-.4-.85-.21-.63-1.1-1.27-.45-1.9.66-.64,1.44.06,2.14.35Z"/>
  <path class="cls-1" d="m85.25,22.16c.07-.24.07-.49-.16-.64-.4-.25-.58.03-.67.34-.41,1.38-.89,2.74-1.16,4.15-.23,1.22-.84,1.99-2.11,2.57-.04-2.21,1.09-3.98,1.42-5.96-.75-.33-1.51.65-2.44-.18,1.93-1,3.42-2.51,5.17-3.65.45-.29,1.23-.35,1.84.02-.11-.11-.16-.16-.16-.16-.05-.06.02-.03.21.09-.61.63-.64,1.52-.99,2.27-.21.45-.27,1.08-.98,1.1l.04.05Z"/>
  <path class="cls-1" d="m87.89,23.76c-.08-1.65.05-2.99.26-4.32.12-.75.45-1.13,1.29-.94,1.22.27,2.54.1,3.59,1.05.67.61,1.68.32,2.55.69-.74,1.19-1.81,1.38-2.9.98-.96-.35-1.51-.03-2.04.66-.64.84-1.47,1.41-2.75,1.87Z"/>
  <path class="cls-1" d="m98.88,86.25c2.97.5,5.93,1.01,8.88,1.5.23.83-.29,1.45-.26,2.13-1.32.97-9.3-1.85-11.77-4.15.43-.56.83,0,1.23.04.09,0,.18,0,.27-.01.18,0,.36.04.53.1.15.06.3.15.44.24.19.12.36.27.52.43.07.11.18.19.3.24,0,0,.09.17.08.16-.04-.13-.12-.21-.24-.25-.14-.07-.19-.17-.15-.32,0,0,.15-.12.15-.12Z"/>
  <path class="cls-1" d="m60.51,25.22h-5.75c.79-2.05,3.59-3.3,5.68-2.54.67.24,1.3.59,1.93.93.71.38.04.81,0,1.22,0,0,.09-.08.09-.08-.57.58-1.46-.05-2.03.54l.08-.07Z"/>
  <path class="cls-1" d="m62.84,28.33c-2.8,2.45-4.51,2.68-6.96,1.03,1.86-2.76,3.46-3.03,6.96-1.03Z"/>
  <path class="cls-1" d="m65.21,47.43c.51.05.89-1.13,1.33-.39.51.88,1.97,1.43,1.39,2.73-.65,1.43-.83,3-1.62,4.97-.88-2.74-.11-5.2-1.04-7.38,0,0-.06.07-.06.07Z"/>
  <path class="cls-1" d="m129.31,19.34c.05.15.16.3.15.44-.15,1.51-.15,1.51.98,2.41-.65.85-1.32.49-2.04.07-.73-.43-1.24-1.21-2.15-1.37,0,0,.07.08.07.08-.58-.57-1.46.04-2.03-.52l.1.05c-.41-.47-1.13-.07-1.54-.54,0,0,.03.07.03.07,1.09-1.03,2.43-.51,3.65-.53.95-.02,1.9.22,2.83-.15h-.04Z"/>
  <path class="cls-1" d="m129.35,19.34c1.46-.05,2.25-1.01,2.83-2.18q2.09.87,2.42,3.07c-1.91.58-3.48-.87-5.29-.88-.01,0,.03,0,.03,0Z"/>
  <path class="cls-1" d="m81.84,58.41c-.31-3.17.73-5.74,3.66-8.82-.61,1.36-1.26,2.71-1.83,4.09-.6,1.45-1.14,2.93-1.83,4.73Z"/>
  <path class="cls-1" d="m94.24,39.17c-2.91,2.25-5.01,5.33-7.91,7.58,1.98-3.2,4.52-5.83,7.91-7.58Z"/>
  <path class="cls-1" d="m76.04,34.19c.72-1.05,1.46-2.07,2.54-2.8.82-.56.88.18,1.12.62,0,0,.04-.08.04-.08-.21.17-.38.38-.57.57l.08-.09c-.19.19-.37.38-.56.56l.08-.08c-.18.19-.37.38-.56.56l.08-.08c-.18.19-.37.38-.56.56l.08-.08c-.18.19-.36.37-.55.55l.06-.08c-.29.29-.23.76-.53,1.06l.06-.08c-.19.18-.37.37-.56.55l.07-.09c-.3.29-.24.76-.53,1.05l.06-.08c-.19.18-.37.36-.55.55l.08-.08c-.19.18-.38.37-.56.56l.07-.09c-.3.29-.24.76-.53,1.05l.06-.08c-.19.18-.37.36-.55.55l.06-.08c-.29.29-.23.77-.53,1.05l.06-.08c-.18.35-.36.36-.55,0,0,0,.06.06.06.06-.07-1.31.72-2.24,1.45-3.18.68-.88,1.39-1.73,1.65-2.85l-.05.05Z"/>
  <path class="cls-1" d="m143.03,30.55c-1.54-1.44-3.08-2.89-5.28-3.25l-.04.06c.5-.34.9-.69,1.61-.25.68.43,1.11-.04,1.23-.77l-.05.05c.92.11.55,1.3,1.36,1.53.71-.42-.15-1.11.33-1.85.52,1.6,1.19,2.96.8,4.55l.04-.07Z"/>
  <path class="cls-1" d="m137.3,26.64c-1.69-.63-3.42-1.17-4.88-2.34,1.45-.94,1.42-.87,3.23-.16,1.24.49,1.73,1.28,1.6,2.54l.05-.05Z"/>
  <path class="cls-1" d="m86.97,26.46c.55.13.88-.24,1.24-.55,2.19-1.92,4.85-3.04,7.44-4.26.44-.21.92-.26,1.39-.03l-.11-.17.16.13c-2.69,1.68-5.71,2.78-8.29,4.66-.58.42-1.21.25-1.83.24,0,0,0,0,0,0Z"/>
  <path class="cls-1" d="m147.65,23.28c-1.74.41-3.17.04-4.72-1.02,1.86-.67,3.49-1.37,4.72,1.02Z"/>
  <path class="cls-1" d="m140.54,26.34c-1.3-2.66-2.61-5.33-3.93-8.02.81-.25.91.19.97.55.37,2,2.1,3.3,2.61,5.24.2.76.61,1.45.3,2.28,0,0,.04-.05.04-.05Z"/>
  <path class="cls-1" d="m125.82,65.69c-.52,3.18-1.8,5.6-3.92,7.37-.5-.45.22-.84.07-1.27,0,0-.08.08-.08.08.77-.92,1.35-1.98,1.99-2.98l-.07.1c.3-.29.24-.77.55-1.06l-.07.1c.3-.29.24-.77.55-1.06l-.06.1c.46-.42.07-1.13.53-1.55,0,0-.07.04-.07.04.19.06.37.12.56.19l.03-.07Z"/>
  <path class="cls-1" d="m158.18,52.1c-1.07-1.66.25-3.3-.12-4.95.78,1.63,1,3.28.12,4.95Z"/>
  <path class="cls-1" d="m97.24,4.76c.16,1.27.24,2.53-.14,3.79-.2.67-.47,1.18-1.42,1.23,0-1.04-.81-2.14.95-2.77.7-.25.45-1.43.62-2.2,0-.01-.02-.05-.02-.05Z"/>
  <path class="cls-1" d="m65.78,33.4h-1.43c.93-1.23.92-2.81,2.55-3.31.53-.16.7,0,.76.47,0,.09,0,.18,0,.27-.03.18-.1.34-.19.49-.05.08-.1.15-.14.23-.07.17-.14.34-.21.5-.1.16-.21.31-.33.45-.22.3-.37.66-.74.82-.09.03-.18.05-.27.08Z"/>
  <path class="cls-1" d="m105.84,93.28c-2.29.16-3.85-.7-5.47-1.4,1.79-.02,3.51.27,5.47,1.4Z"/>
  <path class="cls-1" d="m76.09,34.14c-1.11.39-1.09,1.89-2.39,2.36-.23-.95-.36-1.82.47-2.48.59-.46,1.3-.49,1.86.18.01,0,.06-.06.06-.06Z"/>
  <path class="cls-1" d="m73.11,24.51c-.88.37-1.5.64-2.14.91-.49-.59-.3-1.2-.25-1.78.02-.19.17-.45.33-.54.33-.18.65.06.77.32.23.51.48.94,1.3,1.09Z"/>
  <path class="cls-1" d="m94.06,7.57c-.36.96.54,2.46-1.28,3.01-.13-1.39.99-2.02,1.28-3.01Z"/>
  <path class="cls-1" d="m129.59,41.59c1.05.37,1.53,1.27,1.96,2.19.13.28-.02.64-.38.72-.25.05-.51-.13-.5-.37.04-1.02-1.01-1.59-1.03-2.57,0,0-.04.04-.04.04Z"/>
  <path class="cls-1" d="m81.5,68.26c-.81-1.44-.93-2.58-.64-3.79.14,1.13.77,2.16.64,3.79Z"/>
  <path class="cls-1" d="m67.66,30.56c.23.08.46.16.69.23-.11-.04-.16-.06-.16-.06-.05-.02,0-.02.17.01-.57.82-1.06,1.68-1.17,2.71,0,0,.07-.07.07-.07-.2.18-.39.37-.57.57,0,0,.07-.06.07-.06-.37-.08-.81-.01-.98-.5,0,0-.04.07-.04.07.39-.48.65-1.05,1.03-1.53l-.07.09c.31-.29.25-.76.54-1.06l-.06.09c.18-.19.39-.34.56-.55l-.08.06Z"/>
  <path class="cls-1" d="m109.14,47.74c1.12-.47,2.23-.32,3.35,0h-3.35Z"/>
  <path class="cls-1" d="m98.29,40.49q.43-1.16,2.25-1.93c.15.76-.61.69-.94.99-.39.36-1.05.37-1.31.93-.13-.02-.25-.03-.38-.05.13.02.25.04.38.06Z"/>
  <path class="cls-1" d="m50.7,34.57c-.33.32-.76.44-1.23.23-.23-.1-.33-.37-.19-.56.28-.39.7-.25,1.07-.18.23.05.46.15.35.51Z"/>
  <path class="cls-1" d="m147.47,44.35c-.98-.11-.95-1.05-1.58-1.85,1.2.36,1.34,1.15,1.53,1.9l.05-.05Z"/>
  <path class="cls-1" d="m61.29,20.71c.45-.39.91-.66,1.43-.15.07.07.06.37-.02.43-.56.47-1,.19-1.4-.28Z"/>
  <path class="cls-1" d="m98.91,72.76c-.75-.06-.95-.69-1.49-1.52.95.43,1.42.78,1.44,1.57l.04-.05Z"/>
  <path class="cls-1" d="m96.86,40.52c-.25,1.01-.81,1.53-1.91,1.21.08.13.12.2.12.2.04.07-.01,0-.16-.17.85-.08,1.16-1.07,1.99-1.18l-.05-.05Z"/>
  <path class="cls-1" d="m100.3,74.25c.22.05.5.03.63.17.16.16.67.26.3.65-.04.05-.39-.17-.58-.29-.19-.13-.38-.29-.31-.57,0,0-.05.05-.05.05Z"/>
  <path class="cls-1" d="m115.32,48.24c.38.2.99-.03,1.12.62l.06.02c-.42-.16-.9-.21-1.12-.69l-.06.05Z"/>
  <path class="cls-1" d="m115.38,48.18c-.29.03-.59.17-.84-.1.05-.04.12-.13.15-.12.21.08.42.18.63.27,0,0,.06-.06.06-.06Z"/>
  <path class="cls-1" d="m85.21,22.11c.2.6.5,1.21-.31,1.61l.06.05c.1-.53.2-1.07.3-1.61,0-.01-.05-.06-.05-.06Z"/>
  <path class="cls-1" d="m63.87,18.63c-.04.14-.04.35-.13.39-.31.15-.34-.15-.34-.33,0-.12.13-.25.21-.37.09.1.17.2.26.3Z"/>
  <path class="cls-1" d="m97.93,85.77c.37.06.8-.01.95.48,0,0,.04-.06.04-.06-.34.35-.69.3-1.04,0l.07.06c-.08-.08-.15-.15-.23-.23.07-.09.13-.17.2-.26Z"/>
  <path class="cls-1" d="m96.96,85.79c.31-.53.64-.47.97-.01,0,0,.04-.07.04-.07-.34.4-.69.31-1.04.01l.04.06Z"/>
  <path class="cls-1" d="m70.86,43.38c.23-.28.47-.55.7-.83,0,0-.07-.04-.07-.04.38.34.31.69.01,1.04,0,0,.07-.06.07-.06-.22-.06-.44-.12-.66-.18l.14.17-.2-.11Z"/>
  <path class="cls-1" d="m147.42,44.4c.42.26.47.64.37,1.08l.06-.06c-.46-.23-.52-.61-.38-1.06,0,0-.05.05-.05.05Z"/>
  <path class="cls-1" d="m131.05,27.62c-.38-.03-.81.06-.94-.47,0,0-.05.07-.05.07.39-.42.74-.37,1.05.09-.02.11-.05.21-.07.32Z"/>
  <path class="cls-1" d="m132.08,28.12c-.34-.17-.69-.34-1.03-.5,0,0-.02.07-.02.07.59-.37,1-.39.97.49l.08-.05Z"/>
  <path class="cls-1" d="m148.35,45.44c-.09.18-.17.36-.26.53-.08-.19-.16-.38-.24-.56,0,0-.06.06-.06.06.21.01.41.02.62.03,0,0-.06-.06-.06-.06Z"/>
  <path class="cls-1" d="m96.91,40.57c.42-.49.88-.41,1.37-.09.01.01-.01-.02,0-.01-.46.03-.94.04-1.42.05,0,0,.04.05.04.05Z"/>
  <path class="cls-1" d="m60.97,32.51c.08-.11.15-.22.23-.33.16.37-.18.19-.29.27,0,0,.06.06.06.06Z"/>
  <path class="cls-1" d="m97.72,37.5c-.49.1-.98.16-1.45-.07.07.1.15.2.22.31-.09-.09-.18-.17-.28-.26.51,0,1.02-.33,1.53.05.01,0-.03-.03-.03-.03Z"/>
  <path class="cls-1" d="m155.02,36.76c.1.08.2.15.3.23-.34.13-.15-.2-.24-.29,0,0-.06.06-.06.06Z"/>
  <path class="cls-1" d="m142.13,36.28c-.61-.16-.13-.31,0-.47,0,0-.08-.04-.08-.04.28.18.28.37.01.56l.06-.05Z"/>
  <path class="cls-1" d="m116.44,48.85l.18-.03s-.12.05-.12.05c0,0-.06-.02-.06-.02Z"/>
  <path class="cls-1" d="m96.27,37.44l.06.15s-.11-.1-.11-.1.05-.05.05-.05Z"/>
  <path class="cls-1" d="m144.28,39.8l.18-.07s-.1.03-.11.04c0,.01-.07.03-.07.03Z"/>
  <polygon class="cls-1" points="142.98 30.62 143.1 30.56 143.03 30.55 142.98 30.62"/>
  <path class="cls-1" d="m68.35,30.79l-.09-.18s.09.12.09.12c0,0,0,.06,0,.06Z"/>
  <polygon class="cls-1" points="125.8 65.76 125.81 65.57 125.82 65.69 125.8 65.76"/>
  <path class="cls-1" d="m94.95,41.73c-.16.19-.31.38-.47.57l.03.07c.23-.14.43-.29.41-.61,0-.01.03-.03.03-.03Z"/>
  <path class="cls-1" d="m94.48,42.3c-.11.22-.14.51-.46.55l.06.08c.15-.18.29-.36.43-.55,0,0-.03-.08-.03-.08Z"/>
  <path class="cls-1" d="m98.87,72.8c.34-.03.5.14.48.48l.04-.04c-.36.04-.5-.14-.48-.48,0,0-.04.05-.04.05Z"/>
  <path class="cls-1" d="m99.35,73.28c.34-.02.5.14.48.48l.05-.05c-.35.03-.51-.13-.48-.48,0,0-.04.04-.04.04Z"/>
  <path class="cls-1" d="m99.83,73.76c.34-.01.51.14.48.49,0,0,.05-.05.05-.05-.33,0-.51-.14-.48-.49,0,0-.05.04-.05.04Z"/>
  <path class="cls-1" d="m137.26,26.69c.3.12.39.38.45.66,0,0,.05-.06.04-.06-.15-.21-.3-.43-.44-.65,0,0-.05.04-.05.04Z"/>
  <path class="cls-1" d="m84.89,23.72s.05.04.07.05c0,0-.07-.05-.07-.05Z"/>
  <polygon class="cls-1" points="97.04 21.62 97.07 21.44 97.09 21.57 97.04 21.62"/>
  <path class="cls-1" d="m70.92,43.31l.05.16s-.1-.1-.1-.09.05-.06.05-.06Z"/>
  <path class="cls-1" d="m93.46,43.41c.21-.15.42-.31.62-.47,0,0-.06-.07-.06-.08-.06.35-.24.54-.63.51,0,0,.06.04.06.04Z"/>
  <path class="cls-1" d="m87.13,18.81c-.01-.05-.02-.11-.03-.16-.13.06-.1.1.08.1,0,0-.05.07-.05.07Z"/>
  <path class="cls-1" d="m347.17,86.34c-2.41.3-4.44.24-6.84.07.96-2.65,2.1-5.03,3.31-7.81,1.49,2.61,2.33,5.06,3.53,7.74Z"/>
  <path class="cls-1" d="m132,28.17c-.32-.16-.65-.32-.97-.49-.24-.33-.56-.48-.96-.47-.34-.7-1-1.04-1.65-1.29-6.48-2.53-13.13-4.32-20.16-4.28l.04.03c.14-.59.6-.66,1.1-.67,1.75-.06,3.49-.07,5.21.32,4.4.99,8.88,1.62,13.05,3.51,1.96.89,3.85,1.84,5.57,3.14-.29.14.12,0-.19.09-.07.02-.02-.03.13-.17-.34.29-.75.29-1.17.28Z"/>
  <path class="cls-1" d="m101.64,26.57c-.02.38-.27.52-.59.61-4.96,1.35-9.13,4.28-13.53,6.75-.34.19-.71.32-1.06.48l.05.05c-.01-1.13,1.02-1.32,1.69-1.74,1.61-1,3.22-2.01,4.84-2.99,2.65-1.6,5.59-2.58,8.66-3.11l-.04-.05Z"/>
  <path class="cls-1" d="m101.69,26.62c1.05-.7,2.28-.62,3.43-.68,3-.15,6-.22,9-.23,2,0,3.87.67,5.72,1.38.3.11.57.27.58.65l.04-.05c-3.98-1.27-8.05-1.71-12.23-1.58-1.22.04-2.34.37-3.51.54-1.01.14-2.06.27-3.08-.07,0,0,.04.04.04.04Z"/>
  <path class="cls-1" d="m133.48,33.87c-1.27.06-1.77-1.18-2.73-1.66-2.33-1.17-4.65-2.31-7.16-3.03-1.12-.32-2.27-.61-3.12-1.5,0,0-.04.05-.04.05,4.27.79,8.24,2.34,11.85,4.75.5.33,1.07.72,1.17,1.43,0,0,.04-.05.04-.05Z"/>
  <path class="cls-1" d="m76.04,47c.83-1.63,1.66-3.25,2.49-4.88.98-1.92,2.2-3.65,4.04-4.87h.01c-.01.16.03.37-.05.46-2.37,2.6-3.93,5.71-5.56,8.77-.23.42-.55.51-.97.46l.05.05Z"/>
  <path class="cls-1" d="m111.2,23.59c.28-.45.7-.55,1.2-.59,2.61-.17,5.13.5,7.67.92.5.08.74.53.66,1.07l.07-.05c-3.09-1.24-6.27-1.88-9.61-1.36h.02Z"/>
  <path class="cls-1" d="m94.66,26.76c2.35-1.74,5.04-2.47,7.92-2.62-2.75.56-5.24,1.91-7.97,2.56l.05.05Z"/>
  <path class="cls-1" d="m73.48,42.57c1.02-2.37,2.14-4.67,4.33-6.23l-.05-.04c-1.24,2.21-2.35,4.52-4.33,6.22,0,0,.05.05.05.05Z"/>
  <path class="cls-1" d="m86.46,34.41c-.95,1.43-2.41,2.15-3.88,2.85,0,0,0,0-.01,0,.32-1.15.64-2.26,2.24-2.14.59.04.96-.84,1.69-.66,0,0-.05-.05-.05-.05Z"/>
  <path class="cls-1" d="m83.09,30.64c-.47.41-.67.97-.42,1.5.58,1.22-.18,1.72-1.05,2.19l.05.05c-.29-.81.69-1.66-.07-2.45l.04.04c.06-.9.55-1.31,1.44-1.27l.02-.07Z"/>
  <path class="cls-1" d="m76.3,41.54c.6-1.66,1.18-3.32,2.83-4.28l-.06-.05c-.32,1.46-1.43,3.14-2.83,4.28l.05.05Z"/>
  <path class="cls-1" d="m127.63,26.76c-1.29-.37-2.58-.74-3.87-1.1-.39-.11-.37-.46-.48-.74l-.02.03c1.05.31,2.12.57,3.14.97.44.17,1.17.12,1.18.91l.05-.06Z"/>
  <path class="cls-1" d="m72.02,49.69c.15-1.49,1.12-2.57,1.86-3.77l-.07-.06c.17,1.64-.5,2.87-1.85,3.77l.05.06Z"/>
  <path class="cls-1" d="m100.47,22.98c.95-.98,2.17-.99,3.41-.93-1.08.56-2.24.84-3.45.89l.04.04Z"/>
  <path class="cls-1" d="m77.81,36.34c.16-1.47,1.32-2.14,2.34-2.92l-.05-.05c-.31,1.35-1.3,2.16-2.34,2.93,0,0,.05.04.05.04Z"/>
  <path class="cls-1" d="m106.28,23.97c1.57-.94,3.24-.63,4.92-.38,0,0-.03-.02-.02,0-1.65.12-3.3.23-4.96.35,0,0,.06.05.06.05Z"/>
  <path class="cls-1" d="m97.27,24.11c.7-1.4,1.99-1.17,3.2-1.13,0,0-.05-.05-.04-.04-.95.7-2.16.67-3.2,1.13l.04.04Z"/>
  <path class="cls-1" d="m108.26,21.64c-.58.02-1.16.34-2.02-.04.85-.23,1.44-.19,2.05.05,0,0-.03-.02-.03-.02Z"/>
  <path class="cls-1" d="m80.44,36.49c-.35-.71.52-1.22.32-1.9,0,0,0,0,0,0,.4.72-.16,1.27-.35,1.89l.03.02Z"/>
  <path class="cls-1" d="m143.99,34.97c.49.11.69.48.85.92-.63-.05-.67-.54-.79-.98l-.05.06Z"/>
  <path class="cls-1" d="m124.28,20.44c.71.05,1.46-.05,2.03.52-.72-.01-1.48.12-2.03-.52Z"/>
  <path class="cls-1" d="m123.28,24.92c-.82.49-1.64.34-2.48.02,0,0-.06.05-.06.05.82-.43,1.66.01,2.5-.04.01-.01.04-.04.04-.04Z"/>
  <path class="cls-1" d="m75.27,42.9c.25-.53.47-1.07,1.03-1.36,0,0-.05-.05-.05-.05.09.79-.16,1.31-1.04,1.34l.06.07Z"/>
  <path class="cls-1" d="m106.22,23.92c-.38.23-.76.44-1.21.12.42-.28.84-.16,1.26-.08,0,0-.05-.04-.05-.04Z"/>
  <path class="cls-1" d="m76.14,49.2c-.17.09-.34.19-.5.28.17-.09.34-.18.51-.27l-.12-.19.11.19Z"/>
  <path class="cls-1" d="m97.23,24.07c-.62.06-1.23.4-1.86.07,0,0,.05.05.04.04.59-.43,1.21-.47,1.85-.08.01,0-.03-.03-.03-.03Z"/>
  <path class="cls-1" d="m76.14,49.21c-.26-.72-.14-1.45-.09-2.19-.01-.01-.04-.04-.05-.06.47.71.06,1.49.13,2.24,0,0,0,0,0,0Z"/>
  <path class="cls-1" d="m103.02,34.72c-.15,0-.29,0-.44,0-.22,0-.46.07-.64,0-.13-.06-.06-.28.1-.3.21-.02.43,0,.63.05.13.04.23.18.35.28,0,.01,0-.03,0-.03Z"/>
  <path class="cls-1" d="m122.83,19.95c.55.07,1.17-.05,1.54.54-.55-.08-1.17.04-1.54-.54Z"/>
  <path class="cls-1" d="m123.37,21.2c-.06.02-.13.06-.19.06-.06,0-.11-.07-.16-.11.12.02.23.04.35.05Z"/>
  <path class="cls-1" d="m92.52,27.88c.04-.62.54-.66.98-.78l-.06-.05c-.11.51-.68.51-.95.84-.12-.29-.11-.28.02,0Z"/>
  <path class="cls-1" d="m74.59,45.15c-.23.27-.34.67-.77.72,0,0,.07.06.07.06.1-.39.29-.7.75-.73l-.04-.05Z"/>
  <path class="cls-1" d="m74.87,43.93c.03-.38.14-.73.4-1.02,0,0-.06-.06-.06-.07.13.44.2.86-.4,1.03l.06.06Z"/>
  <path class="cls-1" d="m71.51,43.55c0-.35,0-.7-.01-1.04.14.05.27.04.4-.03l-.06-.05c.06.42.05.82-.33,1.12Z"/>
  <polygon class="cls-1" points="121.47 20.64 121.48 20.75 121.33 20.69 121.47 20.64"/>
  <path class="cls-1" d="m74.64,45.19c-.21-.48-.27-.92.24-1.26,0,0-.06-.06-.06-.06.11.45-.07.85-.23,1.26,0,0,.05.06.05.06Z"/>
  <path class="cls-1" d="m93.5,27.1c.33-.32.72-.39,1.16-.34,0,0-.05-.06-.05-.05-.27.5-.71.44-1.16.35,0,0,.05.05.05.05Z"/>
  <path class="cls-1" d="m128.7,27.14c-.44.1-.82.04-1.07-.38,0,0-.05.06-.05.06.48-.22.87-.19,1.08.37,0,0,.04-.05.04-.05Z"/>
  <path class="cls-1" d="m92.5,27.89c-.19-.01-.38-.02-.57-.03.19,0,.39.02.59.02,0,0-.02,0-.02,0Z"/>
  <path class="cls-1" d="m85.59,29.28c-.42.03-.85.06-1.27.08.21.24-.04-.14.12.14.03.06-.03.03-.18-.06.43-.03.86-.07,1.29-.1l-.17-.16.21.11Z"/>
  <path class="cls-1" d="m88.19,29.56c.38-.13.76-.25,1.14-.38,0,0,.06-.06.06-.06-.38.12-.76.24-1.15.37,0,0-.06.07-.06.07Z"/>
  <path class="cls-1" d="m72.94,40.11c.18,0,.37,0,.55,0-.1.39-.21.78-.31,1.17-.11-.24-.08-.24.06-.03-.1-.38-.2-.76-.29-1.13Z"/>
  <path class="cls-1" d="m73.42,40.19c.18-.35.35-.7.53-1.05-.12.38-.18.79-.53,1.05Z"/>
  <path class="cls-1" d="m143.22,34.57c0-.4-.02-.8-.02-1.2l-.07.06c.35.37-.09.78.05,1.15h.04Z"/>
  <path class="cls-1" d="m76.79,35.39c.18-.35.35-.71.53-1.06-.18.35-.35.71-.53,1.06Z"/>
  <path class="cls-1" d="m74.39,38.75c.1-.39.1-.83.53-1.05l-.53,1.05Z"/>
  <path class="cls-1" d="m75.83,36.83c.07-.4.09-.84.53-1.05-.18.35-.35.7-.53,1.05Z"/>
  <path class="cls-1" d="m71.97,49.64c0,.45-.4.53-.69.7.08.14.15.28.23.42-.08-.14-.17-.27-.25-.41.26-.22.51-.44.76-.66,0,0-.05-.06-.05-.06Z"/>
  <path class="cls-1" d="m71.29,50.34c.04.15.07.3.11.45-.04-.14-.09-.29-.13-.43,0,0,.02-.02.02-.02Z"/>
  <path class="cls-1" d="m143.04,36.89l.06-.06-.06.06Z"/>
  <path class="cls-1" d="m79.51,36.66c.04.32-.12.49-.43.55,0,0,.06.05.06.05.14-.18.29-.36.43-.55l-.07-.05Z"/>
  <path class="cls-1" d="m75.34,37.3c.1-.27.25-.49.55-.55-.18.18-.37.37-.55.55Z"/>
  <path class="cls-1" d="m142.55,36.34c.17.18.33.36.5.54,0,0,.06-.06.06-.06-.16-.18-.33-.37-.49-.56l-.06.07Z"/>
  <path class="cls-1" d="m79.57,36.71c.24-.23.52-.33.86-.23,0,0-.05-.03-.04-.02-.28.07-.58.14-.88.2,0,0,.06.05.06.05Z"/>
  <path class="cls-1" d="m142.06,36.33c0-.19,0-.37-.01-.56.31.07.46.27.49.57,0,0,.06-.07.06-.07-.18.02-.36.04-.54.06Z"/>
  <path class="cls-1" d="m76.29,35.86c.1-.27.24-.5.56-.55-.19.18-.37.37-.56.55Z"/>
  <path class="cls-1" d="m143.18,34.58c.34-.02.66,0,.81.38,0,0,.05-.06.05-.06-.26-.11-.53-.23-.81-.34-.02,0-.06.02-.06.02Z"/>
  <path class="cls-1" d="m81.61,34.34c-.17.44-.51.35-.85.25-.01,0,.02.01,0,0,.29-.07.59-.14.89-.2,0,0-.05-.05-.05-.05Z"/>
  <path class="cls-1" d="m74.85,37.78c.19-.19.37-.37.56-.56-.19.19-.37.37-.56.56Z"/>
  <path class="cls-1" d="m77.25,34.41c.18-.18.37-.37.55-.55-.08.29-.25.49-.55.55Z"/>
  <path class="cls-1" d="m77.73,33.93c.19-.19.37-.37.56-.56-.07.31-.27.48-.56.56Z"/>
  <path class="cls-1" d="m142.6,33.02c.17.14.35.27.53.41,0,0,.07-.06.07-.06-.23-.07-.47-.13-.55-.41,0,0-.05.06-.05.06Z"/>
  <path class="cls-1" d="m80.64,32.96c-.05.3-.23.44-.54.42,0,0,.05.05.05.05.06-.3.23-.45.55-.41l-.06-.06Z"/>
  <path class="cls-1" d="m78.2,33.46c.19-.19.38-.37.56-.56-.09.28-.26.49-.56.56Z"/>
  <path class="cls-1" d="m142.65,32.97c-.22-.18-.45-.36-.67-.54l.06.02c.18.19.37.38.56.57,0,0,.05-.05.05-.05Z"/>
  <path class="cls-1" d="m81.04,32.41c.05.32-.12.48-.4.55,0,0,.06.06.06.06-.03-.3.11-.48.4-.55l-.06-.06Z"/>
  <path class="cls-1" d="m144.61,38.66s-.07.04-.07.04.07-.04.07-.04Z"/>
  <path class="cls-1" d="m73.89,39.21c.18-.18.37-.36.55-.55-.18.18-.37.36-.55.55Z"/>
  <path class="cls-1" d="m78.69,32.98c.1-.28.27-.48.56-.56-.08.3-.24.51-.56.56Z"/>
  <path class="cls-1" d="m141.98,32.43s-.02,0-.02,0c.03,0,.07.02.09.02,0,0-.07-.02-.07-.02Z"/>
  <path class="cls-1" d="m81.1,32.46c.08-.27.23-.47.54-.48,0,0-.04-.04-.04-.04,0,.36-.22.48-.55.47,0,0,.06.06.06.06Z"/>
  <path class="cls-1" d="m79.17,32.5c.08-.3.23-.54.57-.57-.08.3-.27.49-.57.57Z"/>
  <path class="cls-1" d="m86.1,31.05c-.32-.05.08-.23-.15-.02-.11.11-.04.19.1.1l.05-.08Z"/>
  <path class="cls-1" d="m86.04,31.13s0-.09,0-.13c-.12.06-.11.08.04.06,0,0-.05.07-.05.07Z"/>
  <path class="cls-1" d="m83.07,30.71l.02-.18s0,.1,0,.1c0,0-.02.07-.02.07Z"/>
  <path class="cls-1" d="m73.17,41.28l-.1-.08s.15.05.16.05-.05.03-.05.03Z"/>
  <path class="cls-1" d="m134.88,29.45s-.15.24.06.06l-.06-.06Z"/>
  <path class="cls-1" d="m88.24,29.5l.04.13s-.08-.07-.09-.07c0,0,.05-.06.05-.06Z"/>
  <path class="cls-1" d="m84.32,29.36c.02.32-.26.01.02.16.1.05.12-.08-.08-.09,0,0,.06-.07.06-.07Z"/>
  <path class="cls-1" d="m134.94,29.51c-.3-.12.11-.27-.1-.03-.07.07.02.14.05-.02,0,0,.06.05.06.05Z"/>
  <path class="cls-1" d="m89.33,29.19l.02-.14s.03.09.03.09c0,0-.05.05-.05.05Z"/>
  <polygon class="cls-1" points="85.55 29.33 85.51 29.14 85.59 29.27 85.55 29.33"/>
  <path class="cls-1" d="m133.22,27.97l-.14.04s.08-.11.08-.11.06.08.06.08Z"/>
  <path class="cls-1" d="m71.9,42.48s-.03-.03-.06-.04c0,0,.06.04.06.04Z"/>
  <path class="cls-1" d="m106.41,40.27c-1.26,1.09-2.91,1.2-4.39,1.7-.71.24-1.26-.3-1.37-.99-.09-.58.52-.72.95-.85,1.6-.49,3.22-1.02,4.76.17l.05-.04Z"/>
  <path class="cls-1" d="m113.35,43.37c-1.3-.74-2.73-.54-4.13-.51-1.34.02-2.67.13-4.01.2l.05.05c2.58-1.02,5.21-1.12,7.87-.38.12.03.15.43.22.66.2.01.26.02.2,0-.09-.01-.16-.02-.2-.02Z"/>
  <path class="cls-1" d="m108.15,45.11h5.08c-1.7.1-3.39.14-5.08,0Z"/>
  <path class="cls-1" d="m113.34,43.38c2.21-.59,4.23-.09,6.13,1.07l.06-.06c-2.1-.11-4.05-1.08-6.18-1.03,0,0,0,.02,0,.02Z"/>
  <path class="cls-1" d="m89.03,59.42c.7-1.11.02-2.56,1.06-3.59-.07,1.27.08,2.59-1.06,3.59.21.24-.09-.1.12.14-.04-.04-.08-.09-.12-.14Z"/>
  <path class="cls-1" d="m91.57,57.35c-.75,1.04-.56,2.39-1.19,3.48.1-1.26-.34-2.69,1.19-3.47-.06-.05-.11-.09-.15-.12.05.04.1.08.15.12Z"/>
  <path class="cls-1" d="m87.64,57.75c-.59,1.2-.28,2.51-.46,3.74q-.26-2.57.48-3.71l-.03-.03Z"/>
  <path class="cls-1" d="m119.75,45.27c1.1-.63,2.14.04,3.2.16.25.03.39.29.34.52-.08.37-.38.5-.69.31-.88-.53-1.77-1.03-2.84-1.01h-.01Z"/>
  <path class="cls-1" d="m89.03,59.42c.33,1.39.2,2.8,0,4.21,0-1.4,0-2.8,0-4.21,0,0,0,0,0,0Z"/>
  <path class="cls-1" d="m110.72,39.93c1.11.58,2.35.08,3.53.39q-2.21.51-3.52-.37c-.12.07-.24.13-.36.2.12-.07.23-.15.35-.22Z"/>
  <path class="cls-1" d="m92.74,46.63c.41.92.76,1.8-.75,2.07-.21.04-.34.49-.51.75,0,0,.03,0,.03,0-.44-1.32,1.13-1.75,1.24-2.82.12.09.23.18.35.27-.12-.09-.24-.18-.35-.27Z"/>
  <path class="cls-1" d="m103.92,43.28c-.7,1.19-1.83,1.54-3.11,1.62l.06.07c.92-.75,2.03-1.17,3.1-1.65l-.05-.04Z"/>
  <path class="cls-1" d="m94.88,50.46c-.16-1.58.86-2.15,2.13-2.52l-.05-.07c-.64.9-1.79,1.4-2.09,2.58h.02Z"/>
  <path class="cls-1" d="m125.17,51.28c-.5-.88-1.64-1.34-1.63-2.54l-.07.04c.5.88,1.78,1.27,1.62,2.56l.07-.07Z"/>
  <path class="cls-1" d="m97.19,76.79c-.21-1.06-1.79-1.36-1.5-2.7l-.06.06c.64.81,1.83,1.31,1.51,2.66l.05-.02Z"/>
  <path class="cls-1" d="m91.48,63.3c-.25-.51-.18-.98.01-1.51.1.54.2,1-.01,1.51Z"/>
  <path class="cls-1" d="m118.1,41.08c-.55.32-1.05.03-1.57-.13q1.02-.68,1.52.19l.05-.05Z"/>
  <path class="cls-1" d="m99.42,46.32c-.33,0-.66,0-.99,0l.06.06c.5-.97,1.28-1.46,2.38-1.42,0,0-.06-.07-.06-.07-.17.8-1.07.89-1.45,1.48l.06-.06Z"/>
  <path class="cls-1" d="m113.49,37.48c-.52.21-1.03.33-1.52,0,.52-.3,1.03-.11,1.52,0Z"/>
  <path class="cls-1" d="m90.02,63.5c.62.31.63.85.51,1.59-.2-.63-.36-1.13-.52-1.62.18-.02.24-.03.18-.01-.09.02-.15.04-.18.04Z"/>
  <path class="cls-1" d="m119.87,48.17c-.17-.62-.91-.89-.95-1.58l-.04.03c.55.36,1.3.58.99,1.52,0,.01,0,.03,0,.03Z"/>
  <path class="cls-1" d="m92.38,67.76c-.92-.17-.71-.82-.62-1.44.67.32.3,1.02.59,1.47l.03-.03Z"/>
  <path class="cls-1" d="m97.98,48.3c.33-.61.79-1.09,1.38-1.45l-.06-.06c.03.95-.51,1.36-1.37,1.46l.06.06Z"/>
  <path class="cls-1" d="m127.37,53.86c-.79.02-.93-.63-1.18-1.16l-.05.05c.72.06.85.71,1.19,1.16l.05-.06Z"/>
  <path class="cls-1" d="m106.35,40.3c.44-.03.87-.05,1.49-.09-.63.48-1.02.22-1.43.04,0,0-.06.04-.06.04Z"/>
  <path class="cls-1" d="m87.06,54.71c-.27.55-.13,1.25-.63,1.72l.07.07c.04-.64-.4-1.45.61-1.74l-.05-.05Z"/>
  <path class="cls-1" d="m113.72,41.44c-.2-.01-.26-.09-.16-.2.04-.04.14-.06.19-.04.12.03.24.1.36.15-.13.03-.26.06-.39.09Z"/>
  <path class="cls-1" d="m87.67,57.78c-.23-.77-.66-1.57.35-2.14l-.06-.04c-.11.71-.22,1.42-.33,2.14,0,.01.04.05.04.05Z"/>
  <path class="cls-1" d="m95.05,73.72c-.68-.2-.91-.73-1-1.36l-.06.05c.74.16.97.69,1,1.36l.05-.05Z"/>
  <path class="cls-1" d="m89.54,71.93c-.21.02-.41.3-.61.04-.05-.07.04-.24.06-.37.19.11.37.23.56.34-.11.08-.22.16-.33.24.11-.08.21-.17.32-.25Z"/>
  <path class="cls-1" d="m128.57,57.54c-.31-.44-.39-.94-.45-1.46l-.04.05c.78.29.46.92.45,1.45,0,0,.04-.05.04-.05Z"/>
  <path class="cls-1" d="m92.87,55.18c.09-.11.18-.22.26-.33.08-.11.16-.23.24-.35.16.21.12.4-.1.53-.12.07-.27.08-.41.11v.03Z"/>
  <path class="cls-1" d="m92.08,59.51c-.06.11-.13.21-.19.32-.04-.06-.12-.14-.11-.19.04-.11.12-.21.18-.32.04.06.08.13.11.19Z"/>
  <polygon class="cls-1" points="103.93 82.57 104.03 82.65 103.84 82.65 103.93 82.57"/>
  <path class="cls-1" d="m118.92,46.59c-.6.23-1.16.33-1.38-.49-.22.23.08-.08-.14.15.04-.05.09-.1.13-.15.31.5.85.42,1.33.53.01,0,.05-.04.05-.04Z"/>
  <path class="cls-1" d="m86.42,56.44c-.06.23-.15.65-.18.65-.4-.05-.13-.47-.32-.66,0,0-.07.07-.07.07.21,0,.42,0,.63,0,0,0-.07-.07-.07-.07Z"/>
  <path class="cls-1" d="m116.12,45.89c-.07,0-.15,0-.21,0-.21-.04-.41-.1-.62-.15.03-.06.06-.16.1-.17.33-.07.55.08.66.39l.06-.06Z"/>
  <polygon class="cls-1" points="104.91 41.76 104.86 41.87 104.7 41.81 104.91 41.76"/>
  <path class="cls-1" d="m116.02,41.77s0,.12-.02.13c-.2.04-.27-.02-.17-.14.03-.03.13,0,.19,0Z"/>
  <path class="cls-1" d="m89.66,65.81c-.02.07-.02.16-.06.2-.11.08-.2,0-.2-.2,0-.2.09-.28.2-.19.05.03.05.13.07.2Z"/>
  <path class="cls-1" d="m92.84,69.23c-.96-.22-.65-.86-.47-1.46,0,0-.04.04-.03.03.16.48.31.97.46,1.46l.04-.04Z"/>
  <path class="cls-1" d="m91.57,57.35c-.12-.4-.47-.78-.21-1.31.47.43-.1.92.21,1.3,0,0,0,0,0,0Z"/>
  <path class="cls-1" d="m92.86,55.15c.05.15.12.29.14.44.03.15.03.44.01.44-.45.06-.11-.24-.14-.37-.03-.14,0-.3,0-.46,0-.01-.02-.04-.02-.04Z"/>
  <path class="cls-1" d="m103.97,43.32c.42-.15.83-.32,1.29-.22,0,0-.05-.05-.05-.05-.36.43-.8.43-1.28.23,0,0,.04.03.04.03Z"/>
  <polygon class="cls-1" points="118 42.28 118.16 42.25 118.13 42.37 118 42.28"/>
  <polygon class="cls-1" points="102.28 82.08 102.29 82.2 102.13 82.14 102.28 82.08"/>
  <path class="cls-1" d="m98.71,44.12c.15.02.29.04.44.06-.2.25-.27-.16-.43-.09.3.11-.1-.06.2.07.06.03,0,.01-.2-.04Z"/>
  <path class="cls-1" d="m97.71,77.49c.44-.08.89-.16,1.33-.24l-.19.13c-.07.04,0-.01.18-.15-.44.09-.88.17-1.32.26.06-.14.11-.27.17-.41-.05.14-.11.27-.16.41Z"/>
  <path class="cls-1" d="m89.55,71.95c-.02.2-.05.39-.07.59.02-.2.04-.4.06-.6,0,0,0,.01,0,.01Z"/>
  <path class="cls-1" d="m94.05,72.36c-.42-.21-.46-.59-.44-.99l-.06.05c.5.17.57.53.44.99,0,0,.05-.05.05-.05Z"/>
  <path class="cls-1" d="m89.79,70.97c.4.21.25.64.39.95l.07.05c-.16-.35-.32-.7-.48-1.06l.02.05Z"/>
  <path class="cls-1" d="m93.05,70.47c.53.12.56.51.5.94,0,0,.06-.05.06-.05-.48-.15-.48-.55-.5-.94l-.06.05Z"/>
  <path class="cls-1" d="m93.11,70.42c-.5-.3-.51-.71-.28-1.19,0,0-.05.05-.04.04.23.36.4.75.26,1.2,0,0,.06-.05.06-.05Z"/>
  <polygon class="cls-1" points="90.42 69.95 90.5 69.78 90.56 69.97 90.42 69.95"/>
  <path class="cls-1" d="m99.5,41.68l-1.2.17.14.19-.2-.13,1.21-.17.06-.06Z"/>
  <path class="cls-1" d="m118.06,41.14c.12,0,.28-.02.34.04.11.11.03.24-.12.2-.08-.02-.11-.19-.17-.29,0,0-.05.05-.05.05Z"/>
  <path class="cls-1" d="m117.54,46.1c-.48.02-1.02.37-1.41-.22,0,0-.06.06-.06.06.49.05.98.1,1.47.15,0,0,0,0,0,0Z"/>
  <path class="cls-1" d="m99.35,46.85c.02-.17.05-.35.07-.52,0,0-.06.06-.06.06.21,0,.48.04.44.27-.03.21-.3.22-.51.13,0,0,.06.06.06.06Z"/>
  <path class="cls-1" d="m91.05,47.97c-.06-.44-.12-.87-.19-1.31.13.06.25.12.38.18-.13-.05-.26-.1-.39-.15l.15,1.28h.05Z"/>
  <path class="cls-1" d="m90.02,63.47c0-.15.02-.3.02-.45.23.16-.03.31-.02.47,0,0,0-.02,0-.02Z"/>
  <path class="cls-1" d="m110.74,39.95c-.07,0-.14,0-.22-.01.07,0,.13,0,.2-.01,0,0,.02.03.02.03Z"/>
  <polygon class="cls-1" points="92.49 57.86 92.36 57.86 92.42 57.71 92.49 57.86"/>
  <path class="cls-1" d="m90.07,48.24c-.03.37-.07.74-.1,1.11,0,0,.07.02.07.02.03-.36.06-.72.09-1.08l-.06-.04Z"/>
  <path class="cls-1" d="m127.4,55.36c.51,0,.75.25.68.78,0,0,.05-.06.05-.05-.24-.24-.48-.48-.72-.73h-.01Z"/>
  <path class="cls-1" d="m88.02,55.64c-.16-.16-.28-.33-.02-.51.02-.01.14.08.13.09-.05.12-.12.24-.18.37,0,0,.07.05.07.05Z"/>
  <path class="cls-1" d="m127.33,53.92c.32.45.35.93.08,1.43,0,.01.02-.02.01,0-.03-.48-.04-.97-.05-1.47,0,0-.04.05-.04.05Z"/>
  <path class="cls-1" d="m87.1,54.76c-.1-.17-.24-.33-.05-.52,0,0,.11.06.11.08-.03.13-.08.25-.11.39,0,0,.06.06.06.06Z"/>
  <path class="cls-1" d="m94.36,53.02c-.14.06-.31.2-.4.15-.15-.07-.06-.15.19-.08.06.02.14-.04.21-.06l-.16-.07c-.05-.03,0,0,.15.06Z"/>
  <path class="cls-1" d="m92.44,52.54c0,.11,0,.22,0,.33,0-.04,0-.09,0-.13.01-.06.04-.12.06-.18l-.06-.03Z"/>
  <path class="cls-1" d="m126.19,52.7c-.41-.33-.41-.75-.24-1.2l-.06.06c.25.36.38.75.25,1.19,0,0,.05-.05.05-.05Z"/>
  <path class="cls-1" d="m94.36,53.03c-.05-.5-.1-1-.15-1.5.15-.03.23-.04.23-.04.08-.01,0,0-.22.07.05.49.1.97.15,1.47,0,0,0,.01,0,.01Z"/>
  <path class="cls-1" d="m93.33,51.01c.14.4.19.81-.04,1.2l.07.03c0-.41,0-.81,0-1.22h-.03Z"/>
  <polygon class="cls-1" points="88.62 50.17 88.6 50.3 88.68 50.21 88.62 50.17"/>
  <path class="cls-1" d="m89.55,50.47c.19-.11.38-.21.56-.32l-.05-.04c-.15.1-.31.21-.46.31.2.25-.03-.11.14.17.04.06-.02.02-.18-.12Z"/>
  <polygon class="cls-1" points="92.88 50.16 92.92 50.27 92.93 50.15 92.88 50.16"/>
  <path class="cls-1" d="m94.15,50.69c.13-.4.41-.34.72-.24.01,0-.03-.02-.02-.01-.24.07-.5.13-.76.19l.06.06Z"/>
  <path class="cls-1" d="m95.82,50.13c-.05.21-.1.43-.14.64h.06c.05-.2.1-.4.15-.6l-.07-.04Z"/>
  <path class="cls-1" d="m95.89,50.18c.17-.15.35-.3.52-.45l-.06-.05c-.03.32-.25.42-.53.46,0,0,.06.04.06.04Z"/>
  <path class="cls-1" d="m89.6,50.42s0,.1,0,.15c-.01-.03-.03-.07-.04-.1,0,0,.04-.05.04-.05Z"/>
  <path class="cls-1" d="m94.1,50.63c-.14.33-.41.43-.75.38,0,0,.05.02.04.02.25-.12.51-.23.77-.34,0,0-.05-.06-.05-.06Z"/>
  <path class="cls-1" d="m95.67,50.77c-.25-.15-.51-.28-.74.04.03.13.06.26.09.4-.04-.13-.07-.26-.11-.39.27-.02.54-.03.81-.05,0,0-.06,0-.06,0Z"/>
  <path class="cls-1" d="m93.83,49.71c-.31.15-.62.3-.94.45,0,0,.06,0,.05,0,.34.04.66,0,.85-.35l.03-.1Z"/>
  <path class="cls-1" d="m94.93,50.81c-.24.25-.48.49-.72.74,0,0,0-.02,0-.02.44-.02.66-.28.71-.71,0,0,.02-.01.02-.01Z"/>
  <path class="cls-1" d="m90.74,49.83c-.16.25-.4.3-.68.29,0,0,.06.04.05.04.22-.09.45-.18.68-.26l-.05-.07Z"/>
  <path class="cls-1" d="m125.96,51.5c-.33.15-.57,0-.78-.23,0,0-.07.06-.07.07.32-.15.57-.02.79.22,0,0,.07-.06.07-.06Z"/>
  <path class="cls-1" d="m92.02,52.23s-.01-.1-.02-.14c-.16.06-.16.12,0,.17-.14-.07-.21-.1-.21-.1-.07-.04,0-.01.22.08Z"/>
  <path class="cls-1" d="m89.14,49.71c-.17.16-.34.31-.51.47,0,0,.06.04.06.03.17-.15.34-.31.51-.46,0,0-.06-.04-.06-.04Z"/>
  <path class="cls-1" d="m96.91,49.25c-.04.32-.28.4-.56.42,0,0,.06.05.06.05.18-.14.37-.28.55-.41l-.06-.06Z"/>
  <path class="cls-1" d="m93.8,49.81c-.14-.29.24-.15-.07-.12-.1,0-.06.14.1.03,0,0-.03.1-.03.1Z"/>
  <path class="cls-1" d="m91.01,52.65c.33-.14.66-.28,1-.42,0,0-.03.02-.01.02-.36-.05-.68.02-.95.3l-.03.1Z"/>
  <path class="cls-1" d="m93.29,52.21c-.28.11-.56.23-.85.34,0,0,.06.03.06.03.28-.12.56-.23.85-.34,0,0-.06-.03-.06-.03Z"/>
  <path class="cls-1" d="m91.04,52.55s.04.1.05.14c.1-.12.07-.14-.09-.05,0,0,.03-.09.03-.09Z"/>
  <path class="cls-1" d="m90.79,49.89c.08-.39.33-.51.7-.45.01,0-.04-.02-.03-.01-.23.14-.48.26-.73.39,0,0,.05.07.05.07Z"/>
  <path class="cls-1" d="m89.96,49.34c-.27.12-.55.25-.83.37,0,0,.06.05.06.04.27-.13.55-.27.83-.4,0,0-.06-.01-.06-.01Z"/>
  <path class="cls-1" d="m96.97,49.31c.09-.31.27-.45.6-.37,0,0-.06-.07-.06-.07-.2.13-.39.26-.59.39,0,0,.06.06.06.06Z"/>
  <path class="cls-1" d="m131.02,48.82c-.19-.25-.18.2-.17-.12,0-.05.03-.14.04-.14.15.03.18.14.08.31,0,0,.06-.05.06-.05Z"/>
  <path class="cls-1" d="m123.54,48.74c-.18-.22-.35-.44-.53-.65l-.11.18v-.21c.2.24.39.49.57.73,0,0,.07-.04.07-.04Z"/>
  <path class="cls-1" d="m97.92,48.25c-.02.29-.2.47-.42.62,0,0,.06.07.06.07-.07-.35.07-.56.42-.63,0,0-.06-.06-.06-.06Z"/>
  <path class="cls-1" d="m123.01,48.09c-.05.02-.1.04-.16.07.13.1.15.07.06-.1,0,0,.1.03.1.03Z"/>
  <path class="cls-1" d="m91,47.97c-.31.09-.62.18-.93.27,0,0,.06.04.06.04.3-.11.6-.21.91-.31.01,0-.04,0-.04,0Z"/>
  <path class="cls-1" d="m97.01,47.94c.08-.3.27-.42.57-.37l-.03-.07c-.2.12-.39.24-.59.37,0,0,.05.07.05.07Z"/>
  <path class="cls-1" d="m97.58,47.57c0-.27.02-.54.33-.65l-.06-.06c-.11.21-.21.42-.32.64,0,0,.04.07.04.07Z"/>
  <path class="cls-1" d="m99.44,41.74v-.16s.05.11.05.1c0,0-.05.06-.05.06Z"/>
  <path class="cls-1" d="m98.43,46.33c-.19.18-.38.35-.57.53,0,0,.06.06.06.06.1-.27.28-.46.57-.54,0,0-.06-.06-.06-.06Z"/>
  <path class="cls-1" d="m93.85,46.75c-.37-.04-.74-.08-1.1-.12,0,0,0,0,0,0,.36.05.73.1,1.1.15-.14-.04-.21-.06-.21-.06-.07-.02,0,0,.22.05Z"/>
  <path class="cls-1" d="m90.86,46.66c.32.02.63.03.95.05-.05-.11-.1-.22-.16-.33.06.1.12.21.18.31-.33,0-.65,0-.98-.01,0,0,0-.02,0-.02Z"/>
  <path class="cls-1" d="m93.84,46.77c.02-.33.03-.66.05-.99h-.06c0,.31,0,.63,0,.96,0,.01,0,.03,0,.03Z"/>
  <path class="cls-1" d="m91.89,45.81c-.14.29-.18.58-.05.89,0,0-.03.01-.03.01.03-.31.07-.63.1-.95.12.07.18.11.18.11.06.04,0,.02-.2-.06Z"/>
  <path class="cls-1" d="m93.9,45.77c.28,0,.55,0,.83.01-.03-.13-.06-.27-.09-.4.04.13.07.26.11.39-.3,0-.59,0-.9-.01,0,0,.05,0,.05,0Z"/>
  <path class="cls-1" d="m92.76,45.76c-.29.02-.58.04-.87.05,0,0,.03-.04.02-.05.27.17.55.41.82-.02.12-.3-.06.08.08-.2.03-.07.01,0-.05.22Z"/>
  <polygon class="cls-1" points="89.77 70.92 89.71 70.83 89.79 70.97 89.77 70.92"/>
  <path class="cls-1" d="m98.29,41.85c0,.05-.02.1-.02.15.15.01.14-.02-.03-.09,0,0,.06-.06.06-.06Z"/>
  <polygon class="cls-1" points="98.36 45.01 98.29 45.12 98.42 45.07 98.36 45.01"/>
  <path class="cls-1" d="m94.73,45.78c.05-.31.11-.61.16-.92l-.07-.02c-.03.31-.05.62-.08.93,0,0-.02,0-.02,0Z"/>
  <path class="cls-1" d="m90.17,71.92s.08.01.12.02c-.05-.13-.07-.12-.05.03,0,0-.07-.05-.07-.05Z"/>
  <path class="cls-1" d="m95.69,74.08c-.37.14-.57,0-.64-.37,0,0-.05.05-.05.05.31-.05.48.14.62.37,0,0,.06-.06.06-.06Z"/>
  <path class="cls-1" d="m119.48,44.46c.42.14.42.44.29.8,0,.01.02-.03.01-.01-.09-.27-.16-.56-.24-.84,0,0-.06.05-.06.05Z"/>
  <path class="cls-1" d="m91.25,76.32c-.06.03.19-.36-.07-.05l.07.05Z"/>
  <path class="cls-1" d="m91.18,76.27c.32,0,.03.3.12,0,.03-.1-.1-.11-.05.06,0,0-.07-.05-.07-.05Z"/>
  <path class="cls-1" d="m97.14,76.81c.47-.02.59.26.58.67,0,.01,0-.02,0,0,.04-.37-.15-.58-.5-.7-.01,0-.07.03-.07.03Z"/>
  <path class="cls-1" d="m98.72,44.09c-.12.3-.24.61-.36.92,0,0,.05.06.06.07.1-.31.2-.62.3-.94,0-.02,0-.04,0-.04Z"/>
  <path class="cls-1" d="m99.04,77.25c.08.31.15.63.23.94l.08.05c-.11-.33-.22-.67-.33-1.01,0,0,.02.02.02.02Z"/>
  <path class="cls-1" d="m99.27,78.19c.32-.02-.01.28.12-.02.03-.07-.07-.09-.04.06,0,0-.08-.04-.08-.04Z"/>
  <path class="cls-1" d="m98.98,78.81l-.03.07.03-.07Z"/>
  <path class="cls-1" d="m94.89,44.87c.25-.05.5-.1.75-.15l-.03-.09c-.26.07-.52.15-.78.22,0,0,.06.01.06.01Z"/>
  <path class="cls-1" d="m98.95,78.88c.07.26.15.51.22.77l.18-.15s-.11.21-.11.21c-.09-.29-.18-.59-.26-.88,0,0-.03.06-.03.06Z"/>
  <path class="cls-1" d="m99.17,79.65s.1,0,.15,0c-.03.02-.06.03-.08.05,0,0-.07-.05-.07-.05Z"/>
  <path class="cls-1" d="m93.45,45.01c.47-.16.3-.42.11-.69,0,0,.02-.07.02-.07-.04.26-.07.53-.11.8-.11.04-.23.08-.34.12.11-.05.22-.11.33-.16Z"/>
  <path class="cls-1" d="m95.84,43.94c-.08.23-.16.45-.23.69,0,0,.03.08.03.09.09-.24.18-.49.26-.73l-.06-.04Z"/>
  <path class="cls-1" d="m95.9,43.98c.22-.09.43-.19.65-.28l-.03-.07c-.22.1-.45.21-.68.31,0,0,.06.04.06.04Z"/>
  <path class="cls-1" d="m96.55,43.7c.13-.29.25-.58.38-.86l.04.16-.13-.11c-.11.24-.22.49-.33.74,0,0,.04.07.04.07Z"/>
  <path class="cls-1" d="m96.93,42.83s-.01.09-.02.13c.12-.08.09-.1-.07-.07,0,0,.09-.06.09-.06Z"/>
  <path class="cls-1" d="m92.73,45.75c.35-.14.57-.4.72-.74,0,0,0,.04.01.04-.45.02-.67.27-.7.71,0,0-.03,0-.03,0Z"/>
  <path class="cls-1" d="m121.7,68.24c-1.01,1.5-1.76,3.19-3.23,4.34-.43.34-.82.78-1.3,1.01-3.97,1.95-8.08,2.21-12.15.54-1.65-.67-3.2-1.8-3.68-3.8.1-.05.2-.1.29-.14,1.47.07,1.87,1.78,3.18,2.1.11.02.21.03.32.05,1.98.24,3.95.49,5.96.46,1.98-.03,3.79-.4,5.4-1.63.47-.36.92-.95,1.67-.71l-.05-.04c.82.67,1.05-.22,1.46-.57.68-.58.95-1.72,2.16-1.56l-.04-.04Z"/>
  <path class="cls-1" d="m100.83,69.88c-2.32-.95-2.42-3.23-2.86-5.16-.94-4.18.24-7.86,3.2-10.96.32-.34.65-.73,1.22-.5l-.06-.07c.54.87,1.04-.71,1.67.08-.59,1.31-1.83,2.24-2.49,3.6-1.85,3.76-2.16,7.39.2,11.04.29.45.69.9.54,1.53-.11.04-.21.07-.32.11-3.09-2.19-2.55-5.64-3.05-8.05-.14,2.47.91,5.32,2.17,8.13-.07.09-.14.17-.21.26Z"/>
  <path class="cls-1" d="m116.96,51.37c1.03,1.41,2.76,2.13,3.65,3.69.31.55.71,1.06,1.04,1.6.12.19.2.44-.01.63-.27.24-.61.26-.86.04-.3-.26-.54-.58-.77-.91-1.27-1.76-2.84-3.2-4.65-4.38l-.06.06c.68.04,1.26-.16,1.7-.69-.13.04-.25.12-.4.14.12-.07.24-.14.37-.2Z"/>
  <path class="cls-1" d="m102.24,69.44c1.28.65,1.98,1.88,2.89,2.9,0,0,.04-.06.04-.06-1.84-.08-2.85-1.09-2.89-2.87l-.04.03Z"/>
  <path class="cls-1" d="m123.89,68.89c-.31,1.23-.88,2.29-1.99,2.98.4-1.17,1.03-2.19,1.99-2.98Z"/>
  <path class="cls-1" d="m112.91,50.53c-.9-.48-1.83-.35-2.76-.12l.04.03c1.31-.88,1.71-.86,2.68.12l.03-.02Z"/>
  <path class="cls-1" d="m121.62,61.26c.22.98.26,1.49.07,2.04-.27-.52-.14-1.01-.07-2.04Z"/>
  <path class="cls-1" d="m110.15,50.41c-.89.23-1.79.35-3.04.09,1.26-.34,2.16-.32,3.08-.06,0,0-.04-.02-.04-.02Z"/>
  <path class="cls-1" d="m118.98,68.87c.29-.63.59-1.27.88-1.9.15-.31.35-.49.71-.3l-.04-.05c-.1,1.05-.59,1.82-1.62,2.19l.07.06Z"/>
  <path class="cls-1" d="m103.69,51.76c-.46.47-.92.95-1.37,1.42,0,0,.06.06.06.07-.11-1,.35-1.47,1.35-1.43l-.04-.06Z"/>
  <path class="cls-1" d="m118.16,70.46c-.2-.78.28-1.2.82-1.58,0,0-.07-.06-.07-.06.39.86-.12,1.27-.8,1.6,0,0,.05.05.05.05Z"/>
  <path class="cls-1" d="m113.37,51.91c-.09-.1-.15-.24-.26-.31-.12-.07-.29-.06-.4-.13-.11-.08-.03-.19.17-.15.12.02.25.12.33.22.08.1.1.25.15.37.25-.2-.11.09.14-.12-.04.04-.09.08-.14.12Z"/>
  <path class="cls-1" d="m114.88,50.47c-.64.36-1.3-.04-1.96.05-.01,0-.03.02-.04.03.66-.3,1.34-.34,2.02-.02-.17.03-.23.03-.18,0,.07-.04.13-.06.16-.06Z"/>
  <polygon class="cls-1" points="108.73 51.47 108.64 51.39 108.83 51.39 108.73 51.47"/>
  <path class="cls-1" d="m113.36,51.91c.65-.03,1.34-.42,1.92.21,0,0,.06-.06.06-.06-.66-.05-1.32-.1-1.98-.15,0,0,0,0,0,0Z"/>
  <path class="cls-1" d="m122.28,65.42c.11-.19.23-.38.34-.57.24.44-.1.46-.38.51l.04.05Z"/>
  <path class="cls-1" d="m125.31,65.53c0,.57.03,1.16-.53,1.55-.03-.58.06-1.13.53-1.55Z"/>
  <path class="cls-1" d="m121.74,68.28c-.29-.61-.56-1.21.19-1.7l-.06-.05c.24.6-.13,1.13-.18,1.7.01.01.05.05.05.05Z"/>
  <path class="cls-1" d="m124.36,67.93c0,.45-.03.88-.55,1.06,0-.45.02-.88.55-1.06Z"/>
  <path class="cls-1" d="m124.84,66.97c-.07.41-.05.87-.55,1.06.02-.44.03-.88.55-1.06Z"/>
  <path class="cls-1" d="m122.24,65.36c.1.46.24.93-.37,1.17,0,0,.06.05.06.05.12-.38.24-.76.36-1.15,0,0-.05-.06-.05-.06Z"/>
  <path class="cls-1" d="m121.18,65.91c-.22.23-.43.47-.65.7,0,0,.04.05.04.05-.06-.44.32-.54.58-.74-.06-.14-.11-.28-.17-.41.07.13.13.27.2.4Z"/>
  <path class="cls-1" d="m121.15,65.93c0-.13-.02-.26-.02-.39.02.13.03.25.05.38,0,0-.03.01-.03.01Z"/>
  <path class="cls-1" d="m116.99,51.43c-.16-.12-.27-.1-.33.07.06.02.12.05.18.05.32.02-.15,0,.13-.18,0,0,.03.05.03.05Z"/>
  <polygon class="cls-1" points="104.3 51.18 104.33 51.09 104.24 51.14 104.3 51.18"/>
  <path class="cls-1" d="m114.9,50.53l-.1.09s.08-.13.08-.14c0,0,.01.05.01.05Z"/>
  <path class="cls-1" d="m103.73,51.82c.19-.21.38-.42.57-.64,0,0-.06-.05-.06-.05-.18.21-.37.41-.56.62,0,0,.04.06.04.06Z"/>
  <path class="cls-1" d="m101.33,70.34c-.34.04-.5-.13-.51-.46,0,0-.04.04-.04.04.47-.15.62.02.48.48l.07-.06Z"/>
  <path class="cls-1" d="m49.79,42.44c.41-2,1.83-3.15,3.43-3.63,2.72-.82,5.57-1.14,8.45-.7.86.13,1.76.13,2.63.09,1.35-.06,2.57-.06,2.72,1.77.02.29.59.52.5,1.16-.69.23-1.56-.03-1.79-.57-.67-1.58-1.97-1.32-3.17-1.31-1.11,0-2.22.19-3.34.29-.48.05-.98.23-1.43.13-2.87-.64-5.01.85-7.17,2.34-.26.18-.56.29-.84.44Z"/>
  <path class="cls-1" d="m57.75,44.73c-.02,2.42-.86,3.25-2.85,3.19-.98-.03-1.64-.39-2-1.35-.54-1.44-.26-3.39.68-4.25.82-.76,1.78-.68,2.67-.27,1.26.57,1.46,1.76,1.5,2.69Z"/>
  <path class="cls-1" d="m66.69,33.95c.1-.28.28-.48.57-.57-.19.19-.38.38-.57.57Z"/>
  <polygon class="cls-1" points="49.08 43.64 48.96 43.66 49.04 43.7 49.08 43.64"/>
  <polygon class="cls-1" points="49.04 43.7 49.02 43.51 49.07 43.64 49.04 43.7"/>
  <path class="cls-1" d="m51.91,31.46c.62-.03,1.19.03,1.67.86-.79-.19-1.41-.18-1.61-.92l-.06.06Z"/>
  <path class="cls-1" d="m51.09,30.87c.27.2.54.4.82.6,0,0,.05-.06.06-.06-.49.12-.86.06-.82-.58l-.06.04Z"/>
  <polygon class="cls-1" points="55.67 32.91 55.61 33 55.73 32.98 55.67 32.91"/>
  <path class="cls-1" d="m51.15,30.83c-.41.1-.66.01-.59-.49,0,0-.04.06-.04.05.19.16.36.32.55.48.01,0,.07-.05.07-.05Z"/>
  <path class="cls-1" d="m60.44,25.29c.52-.75,1.33-.45,2.03-.54-.51.8-1.33.44-2.03.54Z"/>
  <polygon class="cls-1" points="106.43 88.88 106.28 88.9 106.3 88.82 106.43 88.88"/>
  <polygon class="cls-1" points="104.01 88.42 103.85 88.38 103.99 88.33 104.01 88.42"/>
  <path class="cls-1" d="m98.72,86.9c.5-.07.97-.02,1.29.44.14-.05.28-.11.42-.16-.13.07-.27.14-.4.21-.33-.4-.84-.37-1.27-.54l-.04.05Z"/>
  <path class="cls-1" d="m100.01,87.34c.11-.01.22-.03.33-.04-.05-.01-.11-.05-.15-.04-.06.02-.11.07-.16.12,0,0-.02-.04-.02-.04Z"/>
  <path class="cls-1" d="m97.89,86.2c.35,0,.69,0,1.04,0-.06.23-.13.47-.2.7,0,0,.05-.06.04-.05-.3-.21-.59-.43-.88-.64Z"/>
  <path class="cls-1" d="m96.92,85.72c.35,0,.69,0,1.04-.01,0,.18,0,.37,0,.55-.35-.18-.69-.36-1.04-.54Z"/>
  <path class="cls-1" d="m66.77,31.93c-.18.62-.43,1.2-1.03,1.53.1-.68.46-1.18,1.03-1.53Z"/>
  <path class="cls-1" d="m67.23,30.97c-.06.42-.07.85-.54,1.06.18-.35.36-.71.54-1.06Z"/>
  <path class="cls-1" d="m67.73,30.5c-.07.3-.21.54-.56.55.09-.28.23-.52.56-.55Z"/>
  <path class="cls-1" d="m101.26,70.4c-.03-.29-.13-.5-.48-.48-.79-2.14-2.02-4.11-2.2-6.47-.15-1.92-.24-3.79,1-5.46-.57,2.22-.12,4.42.14,6.6.22,1.88.82,3.68,2.55,4.82.51,1.41,1.51,2.34,2.89,2.87-.22.21.41,1.24-.52.67-1.2-.73-2.26-1.69-3.38-2.55Z"/>
  <path class="cls-1" d="m56.06,46.11c.1.69-.05,1.09-.66,1.16-.84.1-1.59-.82-1.62-1.95-.02-.76.31-1.25,1.09-1.23,1.55.05.83,1.42,1.18,2.01Z"/>
</svg>