<?xml version="1.0" encoding="utf-8"?>
<!-- Generator: Adobe Illustrator 27.6.1, SVG Export Plug-In . SVG Version: 6.00 Build 0)  -->
<svg version="1.1" id="Layer_1" xmlns="http://www.w3.org/2000/svg" xmlns:xlink="http://www.w3.org/1999/xlink" x="0px" y="0px"
	 viewBox="0 0 459.5 44" style="enable-background:new 0 0 459.5 44;" xml:space="preserve">
<style type="text/css">
	.st0{enable-background:new    ;}
	.st1{fill:#FFFFFF;stroke:#1D3051;stroke-miterlimit:10;}
</style>
<g class="st0">
	<path class="st1" d="M285.7,6.2l-13.8,32h-7.3l-13.8-32h8l9.7,22.8l9.9-22.8C278.4,6.2,285.7,6.2,285.7,6.2z"/>
	<path class="st1" d="M288.4,6.2h7.4v31.9h-7.4V6.2z"/>
	<path class="st1" d="M300.8,35l2.5-5.6c2.7,2,6.7,3.3,10.5,3.3c4.4,0,6.2-1.5,6.2-3.4c0-6-18.6-1.9-18.6-13.7
		c0-5.4,4.4-9.9,13.5-9.9c4,0,8.1,1,11.1,2.8l-2.3,5.6c-3-1.7-6-2.5-8.9-2.5c-4.4,0-6.1,1.6-6.1,3.7c0,5.9,18.6,1.8,18.6,13.6
		c0,5.3-4.4,9.9-13.6,9.9C308.8,38.7,303.7,37.2,300.8,35z"/>
	<path class="st1" d="M332.2,24.1V6.2h7.4v17.6c0,6.1,2.6,8.6,7.1,8.6s7.1-2.5,7.1-8.6V6.2h7.3v17.9c0,9.4-5.4,14.6-14.5,14.6
		C337.6,38.7,332.2,33.5,332.2,24.1z"/>
	<path class="st1" d="M388.8,31.3H374l-2.8,6.8h-7.6l14.2-31.9h7.3l14.3,31.9h-7.8L388.8,31.3z M386.4,25.7l-5.1-12.2l-5.1,12.2
		H386.4z"/>
	<path class="st1" d="M402.7,6.2h7.4v25.9h16v6h-23.4V6.2z"/>
	<path class="st1" d="M427.6,35l2.5-5.6c2.7,2,6.7,3.3,10.5,3.3c4.4,0,6.2-1.5,6.2-3.4c0-6-18.6-1.9-18.6-13.7
		c0-5.4,4.4-9.9,13.5-9.9c4,0,8.1,1,11.1,2.8l-2.3,5.6c-3-1.7-6-2.5-8.9-2.5c-4.4,0-6.1,1.6-6.1,3.7c0,5.9,18.6,1.8,18.6,13.6
		c0,5.3-4.4,9.9-13.6,9.9C435.5,38.7,430.4,37.2,427.6,35z"/>
</g>
<g class="st0">
	<path class="st1" d="M1.8,34.3l1.4-2.6c2.3,2.2,6.4,4,10.5,4c6,0,8.6-2.6,8.6-5.7c0-8.8-19.7-3.4-19.7-15.2c0-4.8,3.7-8.8,11.8-8.8
		c3.7,0,7.3,1,10,2.8l-1.1,2.7c-2.7-1.7-6-2.7-8.8-2.7c-5.8,0-8.5,2.6-8.5,5.8c0,8.8,19.7,3.5,19.7,15.2c0,4.8-3.8,8.7-11.9,8.7
		C8.9,38.4,4.2,36.8,1.8,34.3z"/>
	<path class="st1" d="M44.2,23.1l-6.5,6.6v8.5h-3.4V6.1h3.4v19.4L56.4,6.1h3.9L46.5,20.6l14.9,17.6h-4L44.2,23.1z"/>
	<path class="st1" d="M80.8,27.1v11.1h-3.3V27.1L64.6,6.1h3.7l11,18l11-18h3.4L80.8,27.1z"/>
	<path class="st1" d="M109.1,6.1h3.4v29.2h18v2.9h-21.4C109.1,38.2,109.1,6.1,109.1,6.1z"/>
	<path class="st1" d="M137.3,6.1h3.4v32.1h-3.4V6.1z"/>
	<path class="st1" d="M185.6,6.1v32.1h-3.2V12.5l-12.6,21.6h-1.6l-12.6-21.5v25.6h-3.2V6.1h2.7l14,23.9l13.7-23.9
		C182.8,6.1,185.6,6.1,185.6,6.1z"/>
	<path class="st1" d="M197.2,6.1h3.4v32.1h-3.4V6.1z"/>
	<path class="st1" d="M218.4,9h-11.2V6.1h26V9h-11.4v29.2h-3.4V9H218.4z"/>
</g>
</svg>
