<?xml version="1.0" encoding="utf-8"?>
<!-- Generator: Adobe Illustrator 27.6.1, SVG Export Plug-In . SVG Version: 6.00 Build 0)  -->
<svg version="1.1" id="Layer_1" xmlns="http://www.w3.org/2000/svg" xmlns:xlink="http://www.w3.org/1999/xlink" x="0px" y="0px"
	 viewBox="0 0 224.3 92.8" style="enable-background:new 0 0 224.3 92.8;" xml:space="preserve">
<style type="text/css">
	.st0{enable-background:new    ;}
	.st1{fill:#FFFFFF;stroke:#1D3051;stroke-miterlimit:10;}
</style>
<g class="st0">
	<path class="st1" d="M45.6,47.9L31.8,79.9h-7.3L10.7,47.9h8l9.7,22.8l9.9-22.8H45.6z"/>
	<path class="st1" d="M48.3,47.9h7.4v31.9h-7.4V47.9z"/>
	<path class="st1" d="M60.7,76.7l2.5-5.6c2.7,2,6.7,3.3,10.5,3.3c4.4,0,6.2-1.5,6.2-3.4c0-6-18.6-1.9-18.6-13.7
		c0-5.4,4.4-9.9,13.5-9.9c4,0,8.1,1,11.1,2.8l-2.3,5.6c-3-1.7-6-2.5-8.9-2.5c-4.4,0-6.1,1.6-6.1,3.7c0,5.9,18.6,1.8,18.6,13.6
		c0,5.3-4.4,9.9-13.6,9.9C68.7,80.4,63.6,78.9,60.7,76.7z"/>
	<path class="st1" d="M92.1,65.8V47.9h7.4v17.6c0,6.1,2.6,8.6,7.1,8.6c4.5,0,7.1-2.5,7.1-8.6V47.9h7.3v17.9
		c0,9.4-5.4,14.6-14.5,14.6C97.5,80.4,92.1,75.2,92.1,65.8z"/>
	<path class="st1" d="M148.7,73h-14.8l-2.8,6.8h-7.6l14.2-31.9h7.3l14.3,31.9h-7.8L148.7,73z M146.3,67.4l-5.1-12.2l-5.1,12.2H146.3
		z"/>
	<path class="st1" d="M162.6,47.9h7.4v25.9h16v6h-23.4V47.9z"/>
	<path class="st1" d="M187.5,76.7l2.5-5.6c2.7,2,6.7,3.3,10.5,3.3c4.4,0,6.2-1.5,6.2-3.4c0-6-18.6-1.9-18.6-13.7
		c0-5.4,4.4-9.9,13.5-9.9c4,0,8.1,1,11.1,2.8l-2.3,5.6c-3-1.7-6-2.5-8.9-2.5c-4.4,0-6.1,1.6-6.1,3.7c0,5.9,18.6,1.8,18.6,13.6
		c0,5.3-4.4,9.9-13.6,9.9C195.4,80.4,190.3,78.9,187.5,76.7z"/>
</g>
<g class="st0">
	<path class="st1" d="M10.9,35.1l1.2-2.2c2,1.9,5.6,3.4,9.2,3.4c5.2,0,7.5-2.2,7.5-4.9c0-7.6-17.2-2.9-17.2-13.1
		c0-4.1,3.2-7.6,10.3-7.6c3.2,0,6.4,0.9,8.7,2.4l-1,2.3c-2.4-1.5-5.2-2.3-7.7-2.3c-5.1,0-7.4,2.2-7.4,5c0,7.6,17.2,3,17.2,13.1
		c0,4.1-3.3,7.5-10.4,7.5C17.1,38.6,13,37.2,10.9,35.1z"/>
	<path class="st1" d="M47.9,25.4l-5.7,5.7v7.3h-3V10.8h3v16.7l16.4-16.7H62L49.9,23.3l13,15.1h-3.5L47.9,25.4z"/>
	<path class="st1" d="M79.9,28.9v9.5H77v-9.5L65.7,10.8h3.2l9.6,15.5l9.6-15.5h3L79.9,28.9z"/>
	<path class="st1" d="M104.6,10.8h3v25.1h15.7v2.5h-18.7V10.8z"/>
	<path class="st1" d="M129.2,10.8h3v27.6h-3V10.8z"/>
	<path class="st1" d="M171.4,10.8v27.6h-2.8V16.3l-11,18.6h-1.4l-11-18.5v22h-2.8V10.8h2.4l12.2,20.5l12-20.5H171.4z"/>
	<path class="st1" d="M181.5,10.8h3v27.6h-3V10.8z"/>
	<path class="st1" d="M200.1,13.3h-9.8v-2.5h22.7v2.5H203v25.1h-3V13.3z"/>
</g>
</svg>
